<?xml version="1.0" encoding="utf-8"?>
<!-- Generator: Adobe Illustrator 16.0.0, SVG Export Plug-In . SVG Version: 6.00 Build 0)  -->
<!DOCTYPE svg PUBLIC "-//W3C//DTD SVG 1.1//EN" "http://www.w3.org/Graphics/SVG/1.1/DTD/svg11.dtd">
<svg version="1.1" id="Layer_1" xmlns="http://www.w3.org/2000/svg" xmlns:xlink="http://www.w3.org/1999/xlink" x="0px" y="0px"
	 width="180px" height="180px" viewBox="0 0 180 180" enable-background="new 0 0 180 180" xml:space="preserve">
<g>
	<path fill="#F9F9F9" d="M89.721,48.582c23.69,0,42.893,19.206,42.893,42.896c0,23.684-19.202,42.89-42.893,42.89
		s-42.892-19.206-42.892-42.89C46.829,67.787,66.03,48.582,89.721,48.582 M89.721,46.86c-24.598,0-44.614,20.015-44.614,44.617
		c0,24.598,20.016,44.613,44.614,44.613c24.599,0,44.614-20.016,44.614-44.613C134.335,66.875,114.319,46.86,89.721,46.86
		L89.721,46.86z"/>
	<polygon fill="#F9F9F9" points="28.49,98.512 24.469,94.497 28.49,90.476 32.509,94.497 	"/>
	<polygon fill="#F9F9F9" points="151.476,98.512 147.454,94.497 151.476,90.476 155.497,94.497 	"/>
	<g>
		<g>
			<path fill="#F9F9F9" d="M27.59,60.087l-1.681,3.312c-0.646,1.294-0.82,1.88-0.518,2.472c0.212,0.396,0.414,0.646,0.565,0.787
				c0.151,0.138,0.205,0.252,0.131,0.383c-0.081,0.155-0.215,0.138-0.458,0.007c-0.35-0.188-2.118-1.688-2.266-1.826
				c-0.249-0.219-0.347-0.356-0.276-0.488c0.094-0.175,0.43-0.275,0.773-0.8c0.41-0.599,0.905-1.409,1.298-2.132l4.701-8.675
				c0.38-0.699,0.575-1.217,0.709-1.574c0.111-0.363,0.165-0.561,0.212-0.648c0.081-0.151,0.229-0.104,0.555,0.074
				c0.46,0.252,1.937,1.133,2.504,1.442c0.209,0.141,0.316,0.255,0.242,0.39c-0.094,0.175-0.225,0.158-0.565,0l-0.255-0.107
				c-0.592-0.263-1.526-0.007-2.626,1.923l-1.563,2.724l8.984,4.868c2.014,1.09,3.746,2.031,4.748,2.428
				c0.646,0.269,1.204,0.396,1.648-0.212c0.208-0.282,0.511-0.743,0.692-1.069c0.127-0.239,0.255-0.313,0.363-0.255
				c0.155,0.084,0.125,0.292-0.006,0.521c-0.784,1.446-1.597,2.794-1.93,3.409c-0.272,0.504-0.955,1.923-1.429,2.804
				c-0.154,0.282-0.306,0.403-0.457,0.319c-0.111-0.057-0.127-0.185,0.017-0.447c0.175-0.33,0.275-0.612,0.336-0.834
				c0.151-0.484-0.259-0.88-0.86-1.291c-0.861-0.605-2.589-1.543-4.606-2.636L27.59,60.087z"/>
			<path fill="#F9F9F9" d="M43.066,47.95c-2.521-2.818-2.989-3.335-3.557-3.897c-0.599-0.595-1.016-0.763-1.741-0.343
				c-0.182,0.098-0.515,0.36-0.774,0.592c-0.205,0.185-0.35,0.245-0.464,0.118c-0.118-0.134-0.021-0.286,0.256-0.531
				c0.982-0.878,2.202-1.87,2.592-2.219c0.629-0.565,1.991-1.879,2.565-2.401c1.167-1.042,2.509-2.044,4.126-2.256
				c0.833-0.111,2.424,0.171,3.534,1.412c1.23,1.372,1.782,3.15,1.271,6.345c3.511,0.598,6.267,1.103,8.393,1.277
				c2,0.145,2.878-0.407,3.208-0.598c0.235-0.148,0.417-0.276,0.565-0.411c0.148-0.134,0.275-0.144,0.356-0.054
				c0.134,0.151,0.037,0.303-0.185,0.504l-1.762,1.574c-1.039,0.931-1.584,1.254-2.3,1.425c-1.18,0.29-2.666,0.047-4.979-0.45
				c-1.658-0.356-3.638-0.854-4.129-0.915c-0.192-0.03-0.319,0.05-0.451,0.168l-1.647,1.405c-0.091,0.084-0.114,0.172-0.013,0.283
				l0.232,0.259c1.543,1.725,2.854,3.191,3.644,3.887c0.538,0.487,1.012,0.796,1.638,0.373c0.31-0.215,0.753-0.542,0.975-0.74
				c0.148-0.135,0.272-0.145,0.356-0.054c0.114,0.131,0.034,0.302-0.208,0.518c-1.076,0.965-2.495,2.138-2.774,2.387
				c-0.353,0.316-1.469,1.416-2.212,2.078c-0.242,0.218-0.42,0.279-0.538,0.147c-0.084-0.094-0.057-0.215,0.165-0.414
				c0.276-0.249,0.467-0.484,0.599-0.669c0.309-0.41,0.034-0.901-0.374-1.503c-0.602-0.864-1.917-2.33-3.442-4.031L43.066,47.95z
				 M46.566,47.459c0.181,0.201,0.286,0.242,0.467,0.182c0.505-0.215,1.11-0.659,1.574-1.076c0.74-0.662,0.915-0.955,1.036-1.493
				c0.188-0.907-0.034-2.239-1.399-3.759c-2.353-2.636-4.781-1.836-5.874-0.854c-0.464,0.414-0.78,0.733-0.918,0.952
				c-0.094,0.155-0.067,0.259,0.067,0.41L46.566,47.459z"/>
			<path fill="#F9F9F9" d="M59.851,34.944c-1.352-3.537-1.6-4.189-1.93-4.916c-0.35-0.773-0.679-1.076-1.506-0.948
				c-0.205,0.027-0.612,0.155-0.935,0.276c-0.255,0.101-0.414,0.107-0.477-0.054c-0.061-0.165,0.084-0.276,0.434-0.424
				c1.234-0.471,2.727-0.962,3.426-1.231c0.558-0.208,1.997-0.84,2.834-1.143c0.346-0.131,0.528-0.148,0.592,0.017
				c0.064,0.165-0.061,0.262-0.292,0.353c-0.255,0.094-0.387,0.171-0.649,0.323c-0.582,0.356-0.619,0.827-0.353,1.658
				c0.235,0.763,0.484,1.416,1.836,4.953l1.241,3.255c1.288,3.375,2.505,4.539,3.998,5.036c1.378,0.461,2.485,0.145,3.275-0.155
				c1.022-0.393,2.159-1.197,2.733-2.484c0.791-1.769,0.064-3.89-0.851-6.284l-1.109-2.912c-1.352-3.537-1.601-4.189-1.93-4.916
				c-0.35-0.773-0.679-1.076-1.506-0.945c-0.206,0.023-0.612,0.151-0.868,0.249c-0.255,0.097-0.41,0.104-0.474-0.058
				c-0.064-0.161,0.083-0.272,0.407-0.417c1.19-0.451,2.683-0.941,2.703-0.948c0.283-0.108,1.722-0.736,2.629-1.062
				c0.323-0.128,0.504-0.142,0.565,0.02c0.064,0.162-0.057,0.262-0.336,0.37c-0.255,0.098-0.387,0.175-0.649,0.329
				c-0.582,0.356-0.619,0.821-0.353,1.654c0.235,0.76,0.484,1.412,1.836,4.949l0.948,2.492c0.985,2.585,1.776,5.426,0.464,7.851
				c-1.113,2.048-2.69,2.945-4.203,3.521c-1.234,0.471-3.497,1.254-5.78,0.367c-1.598-0.619-3.137-2.004-4.425-5.38L59.851,34.944z"
				/>
			<path fill="#F9F9F9" d="M83.817,39.524c-0.404-0.165-0.481-0.289-0.495-0.834c-0.037-1.372,0.027-2.868,0.044-3.268
				c0.013-0.373,0.081-0.649,0.282-0.652c0.222-0.007,0.252,0.215,0.256,0.417c0.01,0.323,0.121,0.844,0.259,1.264
				c0.595,1.829,2.081,2.461,3.625,2.424c2.243-0.057,3.298-1.604,3.265-2.922c-0.03-1.224-0.434-2.36-2.542-3.924l-1.167-0.867
				c-2.794-2.075-3.783-3.79-3.836-5.807c-0.067-2.743,2.172-4.768,5.635-4.854c1.617-0.041,2.669,0.181,3.322,0.342
				c0.225,0.041,0.35,0.115,0.355,0.29c0.007,0.323-0.074,1.049-0.026,2.989c0.017,0.548-0.054,0.75-0.253,0.757
				c-0.174,0-0.251-0.148-0.258-0.444c-0.007-0.226-0.151-0.995-0.692-1.627c-0.384-0.464-1.123-1.193-2.744-1.15
				c-1.843,0.047-2.939,1.143-2.898,2.636c0.027,1.15,0.625,2.004,2.73,3.521l0.712,0.508c3.067,2.185,4.183,3.88,4.243,6.247
				c0.034,1.442-0.47,3.174-2.231,4.391c-1.224,0.827-2.613,1.086-3.934,1.12C86.022,40.116,84.899,39.968,83.817,39.524z"/>
			<path fill="#F9F9F9" d="M107.965,24.649l-3.591-0.945c-1.399-0.359-2.008-0.406-2.522,0.017
				c-0.343,0.286-0.544,0.538-0.648,0.716c-0.104,0.178-0.205,0.252-0.347,0.211c-0.168-0.05-0.182-0.185-0.104-0.447
				c0.11-0.383,1.2-2.424,1.308-2.603c0.161-0.292,0.275-0.414,0.417-0.37c0.191,0.057,0.359,0.366,0.944,0.588
				c0.673,0.273,1.567,0.585,2.357,0.817l9.461,2.767c0.767,0.222,1.314,0.303,1.688,0.363c0.377,0.033,0.585,0.04,0.68,0.067
				c0.168,0.047,0.147,0.202,0.044,0.559c-0.145,0.504-0.699,2.131-0.882,2.75c-0.094,0.235-0.184,0.363-0.325,0.323
				c-0.195-0.057-0.205-0.188-0.125-0.558l0.051-0.269c0.135-0.632-0.316-1.493-2.427-2.162l-2.993-0.951l-2.864,9.797
				c-0.639,2.199-1.194,4.089-1.372,5.151c-0.128,0.692-0.135,1.257,0.551,1.566c0.323,0.142,0.834,0.343,1.19,0.451
				c0.266,0.074,0.363,0.182,0.33,0.303c-0.048,0.168-0.263,0.182-0.524,0.107c-1.577-0.464-3.063-0.975-3.732-1.17
				c-0.552-0.162-2.078-0.531-3.033-0.807c-0.309-0.094-0.457-0.215-0.409-0.383c0.036-0.118,0.154-0.162,0.439-0.078
				c0.36,0.104,0.659,0.141,0.888,0.158c0.508,0.04,0.804-0.444,1.079-1.117c0.41-0.968,0.963-2.854,1.607-5.053L107.965,24.649z"/>
			<path fill="#F9F9F9" d="M123.034,37.285c2.158-3.114,2.556-3.685,2.969-4.371c0.44-0.726,0.505-1.164-0.07-1.775
				c-0.138-0.154-0.471-0.417-0.76-0.619c-0.226-0.154-0.32-0.282-0.223-0.423c0.102-0.141,0.276-0.087,0.578,0.128
				c0.556,0.383,1.138,0.813,1.648,1.169c0.518,0.39,0.975,0.733,1.264,0.935c0.652,0.454,4.731,3.275,5.134,3.523
				c0.421,0.229,0.777,0.417,0.966,0.488c0.117,0.05,0.282,0.077,0.387,0.145c0.104,0.074,0.063,0.168-0.004,0.269
				c-0.101,0.145-0.373,0.319-1.089,1.22c-0.161,0.192-0.827,1.066-1.036,1.281c-0.094,0.087-0.218,0.182-0.362,0.084
				c-0.142-0.098-0.115-0.232,0.013-0.414c0.101-0.145,0.323-0.508,0.391-0.824c0.11-0.467,0.076-0.857-0.861-1.688
				c-0.322-0.283-2.443-1.812-2.854-2.095c-0.104-0.074-0.185-0.041-0.285,0.101l-3.588,5.185c-0.102,0.145-0.139,0.242-0.014,0.326
				c0.45,0.313,2.808,1.943,3.306,2.229c0.521,0.299,0.87,0.451,1.196,0.374c0.256-0.064,0.41-0.111,0.512-0.041
				c0.084,0.057,0.117,0.141,0.033,0.266c-0.087,0.121-0.396,0.39-1.2,1.379c-0.307,0.396-0.932,1.176-1.032,1.317
				c-0.114,0.162-0.27,0.39-0.454,0.263c-0.145-0.101-0.128-0.208-0.058-0.313c0.122-0.219,0.307-0.487,0.431-0.796
				c0.182-0.478,0.104-0.982-0.599-1.59c-0.355-0.313-2.373-1.738-2.864-2.075c-0.101-0.074-0.182-0.007-0.266,0.118l-1.119,1.617
				c-0.484,0.699-1.81,2.568-2.199,3.177c-0.938,1.442-0.821,1.977,1.267,3.422c0.535,0.371,1.396,0.965,2.096,1.086
				c0.706,0.125,1.247-0.134,1.973-0.874c0.199-0.199,0.293-0.252,0.438-0.155c0.165,0.114,0.051,0.279-0.091,0.484
				c-0.326,0.471-1.456,1.749-1.843,2.091c-0.511,0.431-0.695,0.303-1.473-0.235c-1.539-1.062-2.635-1.883-3.503-2.515
				c-0.854-0.652-1.473-1.11-2.088-1.537c-0.225-0.158-0.676-0.467-1.181-0.79c-0.47-0.323-1.035-0.652-1.445-0.935
				c-0.262-0.185-0.363-0.346-0.266-0.491c0.07-0.101,0.195-0.107,0.44,0.064c0.31,0.212,0.581,0.343,0.793,0.427
				c0.468,0.202,0.881-0.175,1.376-0.713c0.699-0.79,1.818-2.407,3.123-4.293L123.034,37.285z"/>
			<path fill="#F9F9F9" d="M138.131,49.513c3.113-2.155,3.685-2.552,4.313-3.05c0.669-0.521,0.884-0.915,0.559-1.688
				c-0.071-0.191-0.293-0.555-0.491-0.84c-0.158-0.229-0.198-0.376-0.058-0.478c0.142-0.101,0.282,0.017,0.498,0.323
				c0.753,1.086,1.584,2.42,1.98,2.992c0.44,0.635,1.396,1.883,2.246,3.113c1.771,2.562,4.142,5.985,3.353,9.832
				c-0.357,1.765-1.393,3.907-3.826,5.594c-2.583,1.786-5.303,2.062-7.263,1.722c-1.617-0.275-4.547-1.398-7.173-5.191
				c-0.51-0.737-1.031-1.621-1.509-2.441c-0.478-0.82-0.911-1.58-1.265-2.091c-0.158-0.225-0.471-0.676-0.83-1.153
				c-0.326-0.475-0.736-0.979-1.02-1.386c-0.185-0.266-0.222-0.454-0.08-0.551c0.101-0.07,0.222-0.03,0.391,0.212
				c0.215,0.31,0.423,0.525,0.591,0.683c0.37,0.353,0.888,0.145,1.54-0.185c0.932-0.494,2.549-1.614,4.438-2.918L138.131,49.513z
				 M137.65,53.635c-2.173,1.503-3.735,2.616-4.112,2.908c-0.498,0.373-1.288,0.982-1.398,1.301
				c-0.209,0.535-0.085,1.631,1.035,3.251c1.449,2.091,2.824,3.201,4.74,3.691c2.031,0.532,4.184-0.349,6.295-1.812
				c2.599-1.799,3.53-4.052,3.759-5.511c0.498-3.134-0.874-5.642-1.98-7.239c-0.286-0.41-0.871-1.126-1.066-1.234
				c-0.208-0.127-0.355-0.114-0.577,0.041c-0.713,0.46-2.496,1.695-4.116,2.817L137.65,53.635z"/>
		</g>
	</g>
	<g>
		<path fill="#F9F9F9" d="M41.328,131.778c-1.835,1.532-3.271,2.729-3.991,3.499c-0.511,0.521-0.837,0.985-0.434,1.625
			c0.185,0.295,0.501,0.753,0.723,1.021c0.208,0.249,0.215,0.37,0.118,0.45c-0.134,0.115-0.303,0.027-0.545-0.262
			c-1.005-1.204-1.957-2.461-2.374-2.956c-0.413-0.497-1.476-1.657-2.084-2.384c-0.222-0.269-0.296-0.431-0.145-0.561
			c0.101-0.078,0.215-0.051,0.396,0.157c0.239,0.289,0.467,0.487,0.652,0.626c0.396,0.322,0.898,0.067,1.516-0.323
			c0.885-0.572,2.317-1.775,4.153-3.309l3.373-2.811c2.908-2.428,3.446-2.878,4.024-3.43c0.623-0.578,0.801-0.988,0.404-1.735
			c-0.084-0.181-0.343-0.523-0.562-0.79c-0.158-0.191-0.239-0.359-0.118-0.453c0.148-0.128,0.319-0.007,0.555,0.282
			c0.42,0.497,0.864,1.068,1.274,1.563c0.396,0.514,0.747,0.972,0.968,1.24c0.609,0.727,3.853,4.613,4.243,5.037
			c0.323,0.35,0.515,0.578,0.733,0.719c0.131,0.088,0.289,0.115,0.366,0.216c0.064,0.074,0.037,0.195-0.061,0.275
			c-0.131,0.108-0.444,0.209-0.989,0.565c-0.208,0.141-1.368,1.045-1.63,1.197c-0.168,0.107-0.316,0.168-0.431,0.033
			c-0.111-0.135-0.043-0.249,0.148-0.45c0.155-0.121,0.464-0.384,0.632-0.72c0.155-0.356,0.107-0.996-0.481-1.742l-2.401-2.992
			c-0.097-0.121-0.205-0.128-0.413,0.047l-4.788,3.995c-0.114,0.097-0.154,0.167-0.057,0.278l2.064,2.435
			c0.266,0.326,0.494,0.595,0.736,0.844c0.323,0.35,0.625,0.555,1.032,0.538c0.195,0,0.303-0.026,0.4,0.087
			c0.067,0.081,0.037,0.162-0.077,0.263c-0.118,0.095-0.672,0.396-1.312,0.834c-0.42,0.282-1.328,0.981-1.462,1.089
			c-0.175,0.145-0.367,0.307-0.524,0.114c-0.098-0.114,0.007-0.262,0.141-0.376c0.131-0.115,0.33-0.343,0.495-0.612
			c0.191-0.315,0.296-0.895-0.125-1.546c-0.343-0.532-2.038-2.562-2.307-2.885c-0.081-0.095-0.151-0.102-0.286,0.006L41.328,131.778
			z"/>
		<path fill="#F9F9F9" d="M54.834,145.031c-0.108-0.061-0.178-0.043-0.296,0.062l-2.952,2.406c-0.524,0.411-0.935,0.867-1.083,1.124
			c-0.229,0.39-0.195,0.783,0.471,1.169l0.323,0.188c0.259,0.148,0.299,0.229,0.229,0.357c-0.102,0.175-0.256,0.141-0.491,0.006
			c-0.692-0.4-1.58-1.002-2.246-1.392c-0.242-0.135-1.466-0.76-2.582-1.412c-0.283-0.162-0.383-0.275-0.286-0.45
			c0.077-0.129,0.185-0.121,0.359-0.021c0.188,0.107,0.504,0.263,0.693,0.343c1.066,0.444,1.9-0.047,2.952-0.874l13.261-10.39
			c0.619-0.478,0.888-0.639,1.103-0.518c0.195,0.114,0.215,0.383,0.138,1.002c-0.172,1.486-1.822,12.279-2.344,16.348
			c-0.31,2.414,0.141,3.079,0.531,3.449c0.286,0.256,0.595,0.464,0.854,0.611c0.175,0.102,0.266,0.186,0.178,0.337
			c-0.098,0.175-0.316,0.101-1.113-0.359c-0.777-0.448-2.347-1.362-4.048-2.404c-0.373-0.249-0.632-0.396-0.544-0.549
			c0.074-0.13,0.185-0.124,0.417-0.017c0.175,0.041,0.437-0.067,0.477-0.383l0.928-5.568c0.02-0.134-0.02-0.215-0.128-0.275
			L54.834,145.031z M59.851,146.504c0.107,0.064,0.165,0.014,0.182-0.063l1.153-6.445c0.027-0.101,0.07-0.222,0.003-0.256
			c-0.061-0.037-0.168,0.048-0.242,0.114l-5.057,4.149c-0.074,0.073-0.087,0.154,0,0.202L59.851,146.504z"/>
		<path fill="#F9F9F9" d="M77.604,142.368c0.107-0.413,0.275-0.625,0.474-0.611c0.202,0.021,0.34,0.155,0.612,0.827l5.631,14.552
			l7.908-13.624c0.229-0.383,0.371-0.571,0.596-0.552c0.222,0.018,0.35,0.276,0.384,0.808l1.012,15.521
			c0.094,1.58,0.282,2.319,1.009,2.608c0.702,0.279,1.197,0.343,1.52,0.37c0.222,0.021,0.396,0.061,0.383,0.209
			c-0.013,0.197-0.319,0.248-0.666,0.222c-0.621-0.054-4.041-0.403-5.026-0.559c-0.567-0.101-0.709-0.188-0.699-0.336
			c0.01-0.121,0.117-0.188,0.295-0.249c0.155-0.04,0.256-0.356,0.212-1.056l-0.602-11.049l-0.097-0.007l-6.328,10.834
			c-0.666,1.116-0.807,1.331-1.032,1.312c-0.226-0.018-0.431-0.532-0.77-1.312c-0.504-1.19-2.155-5.145-2.394-5.864
			c-0.182-0.538-1.416-3.786-2.135-5.723l-0.098-0.007l-2.098,9.774c-0.084,0.44-0.134,0.764-0.165,1.16
			c-0.041,0.471,0.262,0.72,0.676,0.854c0.44,0.138,0.787,0.188,1.036,0.208c0.195,0.021,0.37,0.08,0.356,0.209
			c-0.02,0.218-0.245,0.248-0.618,0.221c-1.042-0.087-2.152-0.248-2.596-0.285c-0.474-0.037-1.671-0.064-2.465-0.124
			c-0.252-0.021-0.444-0.088-0.427-0.31c0.01-0.128,0.161-0.169,0.41-0.142c0.202,0.014,0.373,0.027,0.753-0.014
			c0.706-0.094,0.982-1.049,1.177-1.882L77.604,142.368z"/>
		<path fill="#F9F9F9" d="M105.89,148.017c-1.146-3.61-1.354-4.273-1.644-5.016c-0.307-0.794-0.67-1.123-1.234-1.076
			c-0.278,0.014-0.595,0.088-0.881,0.179c-0.239,0.076-0.397,0.07-0.457-0.118c-0.048-0.142,0.131-0.249,0.521-0.363
			c0.9-0.289,2.42-0.692,3.106-0.907c0.596-0.195,1.97-0.707,2.864-1.003c0.31-0.097,0.515-0.107,0.559,0.034
			c0.061,0.188-0.067,0.282-0.307,0.356c-0.235,0.077-0.42,0.161-0.686,0.299c-0.605,0.319-0.666,0.784-0.447,1.631
			c0.188,0.773,0.404,1.439,1.547,5.05l1.331,4.177c0.733,2.3,1.328,4.176,1.745,5.171c0.272,0.615,0.578,0.988,1.321,0.861
			c0.35-0.062,0.885-0.183,1.237-0.29c0.263-0.087,0.403-0.054,0.44,0.067c0.058,0.168-0.11,0.296-0.372,0.38
			c-1.571,0.494-3.088,0.905-3.727,1.106c-0.548,0.175-2.018,0.72-2.969,1.021c-0.309,0.102-0.5,0.081-0.551-0.087
			c-0.037-0.121,0.036-0.222,0.322-0.31c0.354-0.114,0.625-0.249,0.824-0.366c0.443-0.245,0.457-0.696,0.31-1.409
			c-0.202-1.035-0.794-2.904-1.527-5.211L105.89,148.017z"/>
		<path fill="#F9F9F9" d="M125.576,143.391c1.843,2.603,2.838,4.008,3.521,4.068c0.562,0.061,1.192-0.168,2.78-1.291
			c1.076-0.767,1.855-1.345,1.974-2.256c0.057-0.44-0.102-1.181-0.336-1.598c-0.104-0.194-0.151-0.343,0.01-0.456
			c0.141-0.108,0.235-0.018,0.407,0.228c0.157,0.223,1.099,1.85,1.352,2.556c0.191,0.531,0.164,0.706-0.892,1.452
			c-1.466,1.039-2.552,1.749-3.483,2.374c-0.94,0.605-1.688,1.103-2.521,1.694c-0.226,0.162-0.673,0.478-1.145,0.841
			c-0.47,0.33-0.968,0.747-1.378,1.036c-0.263,0.188-0.447,0.229-0.552,0.087c-0.07-0.101-0.03-0.222,0.212-0.396
			c0.307-0.216,0.521-0.431,0.676-0.599c0.35-0.37,0.135-0.888-0.202-1.533c-0.504-0.928-1.641-2.535-2.965-4.404l-2.535-3.585
			c-2.189-3.086-2.589-3.657-3.09-4.276c-0.531-0.666-0.928-0.874-1.698-0.545c-0.188,0.074-0.45,0.229-0.713,0.417
			c-0.225,0.158-0.376,0.202-0.478,0.061c-0.101-0.142,0.015-0.282,0.312-0.504c0.959-0.673,2.283-1.521,2.832-1.91
			c0.487-0.343,1.927-1.459,2.727-2.018c0.282-0.201,0.45-0.262,0.559-0.12c0.101,0.147,0.006,0.275-0.242,0.443
			c-0.22,0.161-0.532,0.41-0.747,0.625c-0.474,0.491-0.396,0.948,0.067,1.688c0.42,0.68,0.823,1.251,3.013,4.345L125.576,143.391z"
			/>
		<path fill="#F9F9F9" d="M140.336,130.204c-1.093-0.783-1.681-0.901-2.457-1.056c-0.428-0.095-6.829-0.565-8.39-0.608
			c-1.116-0.03-1.983,0.114-2.481,0.339c-0.329,0.161-0.699,0.424-0.874,0.666c-0.114,0.162-0.255,0.275-0.396,0.175
			c-0.121-0.091-0.084-0.275,0.101-0.511c0.259-0.37,1.412-1.843,1.887-2.516c0.306-0.423,0.837-1.297,1.482-2.212
			c0.145-0.205,0.279-0.263,0.397-0.175c0.121,0.088,0.04,0.242-0.095,0.605c-0.088,0.208,0,0.427,0.162,0.544
			c0.161,0.115,0.477,0.188,0.863,0.249c0.813,0.148,7.727,0.808,8.526,0.888c-0.339-0.551-2.975-6.294-3.402-7.027
			c-0.299-0.524-0.585-0.847-0.851-1.035c-0.201-0.148-0.484-0.222-0.813,0.061c-0.168,0.154-0.337,0.31-0.464,0.222
			c-0.135-0.101-0.107-0.231,0.077-0.471c0.474-0.669,1.002-1.277,1.422-1.862c0.316-0.444,1.215-1.829,1.483-2.219
			c0.157-0.223,0.299-0.337,0.42-0.249c0.147,0.107,0.088,0.309-0.07,0.53c-0.145,0.203-0.34,0.646-0.394,1.066
			c-0.101,0.571-0.017,0.972,0.212,1.806c0.333,1.25,3.062,7.491,3.675,8.479c0.512,0.827,1.143,1.278,1.809,1.755l1.661,1.19
			c0.323,0.229,1.177,0.841,2.071,1.385c0.619,0.384,1.197,0.519,1.708-0.033c0.249-0.252,0.604-0.672,0.808-0.955
			c0.161-0.222,0.292-0.282,0.396-0.208c0.141,0.101,0.087,0.309-0.104,0.571c-0.911,1.278-1.887,2.509-2.279,3.06
			c-0.36,0.505-1.214,1.829-1.752,2.576c-0.199,0.282-0.356,0.417-0.518,0.302c-0.102-0.073-0.095-0.218,0.066-0.439
			c0.202-0.287,0.337-0.556,0.431-0.771c0.202-0.464-0.107-0.962-0.666-1.422c-0.807-0.67-1.66-1.281-1.983-1.51L140.336,130.204z"
			/>
	</g>
	<path fill="#F9F9F9" d="M89.435,51.594c-21.831,0-39.597,17.763-39.597,39.594c0,21.835,17.766,39.601,39.597,39.601
		c21.834,0,39.59-17.766,39.59-39.601C129.025,69.357,111.27,51.594,89.435,51.594z M115.109,81.596h-0.988
		c-2.674-9.435-8.382-9.623-17.131-9.623c-1.218,0-2.414,0.074-3.695,0.104l-0.655,2.112v13.298h4.976
		c4.956,0,7.384-1.92,9.058-6.638h0.743c-0.131,2.791-0.185,5.646-0.185,8.433c0,2.992,0.054,5.285,0.185,8.204h-0.743
		c-1.613-6.211-3.355-7.828-8.634-8.258c-1.486-0.124-3.288-0.124-5.399-0.124v12.843c0,6.587,0.867,6.96,7.571,8.262v0.743
		c-3.53-0.125-7.017-0.246-10.551-0.246c-3.036,0-6.075,0.121-9.122,0.246v-0.743c5.901-0.495,6.52-2.357,6.52-9.313V83.001
		l-0.155-6.698c-0.229-2.236-0.837-3.578-2.192-4.384c-0.76-0.034-1.5-0.071-2.246-0.071c-8.762,0-14.471,0.188-17.14,9.626h-0.992
		c0.127-2.115,0.242-4.223,0.242-6.395c0-1.667-0.114-3.349-0.242-5.09c3.598,0.128,6.456,0.246,10.678,0.246l7.145,0.195
		c1.311-0.057,2.864-0.124,4.105-0.091c2.048,0,3.588,0.021,4.708,0.021h13.466c4.223,0,7.074-0.125,10.675-0.252
		c-0.124,1.742-0.245,3.419-0.245,5.094C114.864,77.37,114.985,79.484,115.109,81.596z"/>
	<g>
		<g>
			<path fill="#F9F9F9" d="M169.399,94.812c0.75-0.658,1.661-1.479,2.055-3.486c-2.034,0.27-2.949,1.09-3.702,1.745
				c-0.75,0.659-0.988,1.553-0.534,2.031C167.671,95.582,168.646,95.472,169.399,94.812z"/>
			<path fill="#F9F9F9" d="M173.999,95.059c-0.679-0.777-1.503-1.694-1.688-3.723c2.004,0.31,2.831,1.224,3.511,2.004
				c0.679,0.773,0.819,1.816,0.315,2.29C175.637,96.104,174.678,95.835,173.999,95.059z"/>
		</g>
		<g>
			<path fill="#F9F9F9" d="M169.026,99.812c0.851-0.602,1.809-1.362,2.165-3.355c-2.026,0.145-2.935,0.911-3.681,1.522
				c-0.717,0.619-1.124,1.479-0.693,1.988C167.221,100.472,168.209,100.421,169.026,99.812z"/>
			<path fill="#F9F9F9" d="M173.605,100.347c-0.571-0.81-1.341-1.778-1.556-3.826c2,0.431,2.82,1.405,3.493,2.226
				c0.706,0.821,0.672,1.859,0.145,2.301C175.136,101.49,174.208,101.157,173.605,100.347z"/>
		</g>
		<g>
			<path fill="#F9F9F9" d="M168.27,104.771c0.811-0.558,1.8-1.261,2.388-3.214c-2.045,0.017-3.033,0.72-3.843,1.277
				c-0.811,0.565-1.137,1.422-0.733,1.957C166.481,105.327,167.46,105.337,168.27,104.771z"/>
			<path fill="#F9F9F9" d="M172.806,105.592c-0.595-0.854-1.317-1.872-1.298-3.916c1.957,0.555,2.684,1.572,3.278,2.431
				c0.592,0.857,0.625,1.916,0.08,2.326C174.318,106.843,173.401,106.449,172.806,105.592z"/>
		</g>
		<g>
			<path fill="#F9F9F9" d="M167.197,109.671c0.857-0.508,1.964-1.127,2.687-3.033c-1.993-0.104-3.097,0.518-3.954,1.022
				c-0.87,0.504-1.284,1.332-0.935,1.887C165.348,110.102,166.33,110.172,167.197,109.671z"/>
			<path fill="#F9F9F9" d="M171.673,110.777c-0.525-0.895-1.11-1.938-0.948-3.972c1.971,0.69,2.556,1.732,3.08,2.623
				c0.514,0.888,0.443,1.937-0.145,2.307C173.071,112.108,172.188,111.661,171.673,110.777z"/>
		</g>
		<g>
			<path fill="#F9F9F9" d="M165.923,114.522c0.915-0.44,1.917-1.036,2.71-2.905c-2.023-0.241-3.069,0.336-3.927,0.798
				c-0.847,0.46-1.258,1.28-0.988,1.839C164.017,114.825,164.998,114.959,165.923,114.522z"/>
			<path fill="#F9F9F9" d="M170.317,115.908c-0.44-0.915-1.096-2.031-0.854-4.068c1.88,0.8,2.492,1.909,2.993,2.837
				c0.508,0.936,0.427,1.99-0.232,2.311C171.599,117.313,170.748,116.815,170.317,115.908z"/>
		</g>
		<g>
			<path fill="#F9F9F9" d="M164.195,119.233c0.907-0.397,2.017-0.898,2.985-2.693c-2.018-0.373-3.127,0.127-4.034,0.524
				c-0.908,0.396-1.399,1.174-1.11,1.771C162.329,119.435,163.287,119.63,164.195,119.233z"/>
			<path fill="#F9F9F9" d="M168.495,120.895c-0.417-0.952-0.928-2.085-0.505-4.082c1.816,0.914,2.331,2.047,2.744,2.998
				c0.417,0.952,0.239,1.994-0.38,2.29C169.736,122.403,168.908,121.845,168.495,120.895z"/>
		</g>
		<g>
			<path fill="#F9F9F9" d="M162.241,123.85c0.914-0.343,2.213-0.706,3.171-2.488c-1.964-0.491-3.043-0.033-4.024,0.279
				c-0.955,0.325-1.523,1.059-1.288,1.671C160.335,123.92,161.29,124.176,162.241,123.85z"/>
			<path fill="#F9F9F9" d="M166.428,125.779c-0.37-0.985-0.652-2.078-0.219-4.096c1.772,1.036,2.276,2.227,2.579,3.181
				c0.332,0.962,0.061,1.978-0.592,2.229C167.544,127.347,166.761,126.741,166.428,125.779z"/>
		</g>
		<g>
			<path fill="#F9F9F9" d="M160.066,128.368c0.935-0.286,2.074-0.652,3.207-2.34c-1.943-0.619-3.087-0.253-4.018,0.033
				c-0.941,0.282-1.477,1.022-1.288,1.641C158.144,128.311,159.107,128.644,160.066,128.368z"/>
			<path fill="#F9F9F9" d="M164.121,130.561c-0.31-1.009-0.696-2.205-0.074-4.159c1.691,1.14,2.081,2.337,2.391,3.346
				c0.303,0.998,0.048,2.037-0.629,2.239C165.119,132.188,164.406,131.549,164.121,130.561z"/>
		</g>
		<g>
			<path fill="#F9F9F9" d="M157.477,132.665c0.969-0.215,2.159-0.494,3.453-2.07c-1.909-0.747-3.097-0.465-4.067-0.25
				c-0.973,0.216-1.604,0.885-1.433,1.526C155.598,132.514,156.506,132.884,157.477,132.665z"/>
			<path fill="#F9F9F9" d="M161.388,135.105c-0.226-1.008-0.512-2.215,0.289-4.091c1.61,1.24,1.896,2.444,2.121,3.456
				c0.226,1.012-0.147,1.997-0.813,2.173C162.319,136.817,161.612,136.114,161.388,135.105z"/>
		</g>
		<g>
			<path fill="#F9F9F9" d="M154.7,136.841c0.962-0.164,2.323-0.262,3.563-1.855c-1.858-0.868-2.966-0.599-3.98-0.468
				c-1.002,0.142-1.705,0.75-1.588,1.396C152.813,136.552,153.701,136.982,154.7,136.841z"/>
			<path fill="#F9F9F9" d="M158.452,139.524c-0.182-1.035-0.235-2.151,0.531-4.075c1.526,1.338,1.836,2.626,1.96,3.625
				c0.145,1.008-0.315,1.95-1.005,2.071C159.249,141.272,158.594,140.529,158.452,139.524z"/>
		</g>
		<g>
			<path fill="#F9F9F9" d="M151.697,140.862c0.972-0.104,2.165-0.249,3.604-1.688c-1.796-0.975-2.989-0.83-3.965-0.726
				c-0.971,0.107-1.66,0.709-1.562,1.379C149.849,140.473,150.729,140.974,151.697,140.862z"/>
			<path fill="#F9F9F9" d="M155.271,143.774c-0.114-1.046-0.266-2.293,0.716-4.089c1.449,1.433,1.604,2.683,1.715,3.726
				c0.114,1.042-0.355,1.994-1.028,2.091C155.978,145.583,155.393,144.819,155.271,143.774z"/>
		</g>
		<g>
			<path fill="#F9F9F9" d="M148.359,144.608c0.994-0.027,2.219-0.081,3.792-1.383c-1.738-1.092-2.962-1.038-3.958-1.012
				c-0.995,0.03-1.744,0.568-1.701,1.23C146.54,144.104,147.363,144.639,148.359,144.608z"/>
			<path fill="#F9F9F9" d="M151.745,147.735c-0.031-1.032-0.085-2.267,1.062-3.955c1.349,1.518,1.398,2.751,1.43,3.786
				c0.033,1.033-0.521,1.93-1.211,1.978C152.337,149.591,151.774,148.767,151.745,147.735z"/>
		</g>
		<g>
			<path fill="#F9F9F9" d="M144.858,148.199c0.999,0.037,2.31,0.154,3.836-1.171c-1.657-1.189-2.827-1.163-3.809-1.187
				c-1.013-0.051-1.819,0.417-1.826,1.069C143.057,147.561,143.846,148.151,144.858,148.199z"/>
			<path fill="#F9F9F9" d="M148.043,151.534c0.037-1.032,0.15-2.179,1.271-3.914c1.261,1.607,1.291,2.898,1.268,3.941
				c-0.05,1.015-0.679,1.853-1.382,1.842C148.5,153.397,147.992,152.547,148.043,151.534z"/>
		</g>
		<g>
			<path fill="#F9F9F9" d="M141.146,151.574c0.976,0.081,2.179,0.165,3.863-0.979c-1.584-1.291-2.784-1.375-3.762-1.452
				c-0.979-0.081-1.772,0.38-1.8,1.053C139.422,150.868,140.168,151.497,141.146,151.574z"/>
			<path fill="#F9F9F9" d="M144.115,155.102c0.084-1.046,0.168-2.296,1.477-3.873c1.153,1.678,1.068,2.932,0.984,3.978
				c-0.084,1.042-0.726,1.886-1.405,1.855C144.492,157.035,144.031,156.145,144.115,155.102z"/>
		</g>
		<g>
			<path fill="#F9F9F9" d="M137.176,154.641c0.981,0.162,2.196,0.34,3.988-0.643c-1.504-1.395-2.717-1.576-3.699-1.734
				c-0.988-0.158-1.826,0.226-1.906,0.884C135.481,153.804,136.188,154.482,137.176,154.641z"/>
			<path fill="#F9F9F9" d="M139.916,158.346c0.165-1.021,0.347-2.242,1.789-3.681c1.042,1.741,0.86,2.965,0.695,3.984
				c-0.161,1.015-0.874,1.792-1.56,1.707C140.155,160.272,139.755,159.361,139.916,158.346z"/>
		</g>
		<g>
			<path fill="#F9F9F9" d="M133.073,157.525c0.985,0.242,2.223,0.559,3.978-0.45c-1.401-1.473-2.571-1.681-3.52-1.866
				c-0.972-0.219-1.859,0.071-1.983,0.71C131.416,156.558,132.085,157.283,133.073,157.525z"/>
			<path fill="#F9F9F9" d="M135.579,161.393c0.241-0.982,0.537-2.132,1.97-3.618c0.941,1.815,0.716,3.069,0.515,4.115
				c-0.226,1.009-1.016,1.695-1.698,1.557C135.676,163.306,135.34,162.377,135.579,161.393z"/>
		</g>
		<g>
			<path fill="#F9F9F9" d="M128.783,160.131c0.945,0.263,2.115,0.572,3.985-0.228c-1.312-1.567-2.482-1.873-3.427-2.139
				c-0.948-0.263-1.812,0.037-1.967,0.692C127.221,159.113,127.835,159.869,128.783,160.131z"/>
			<path fill="#F9F9F9" d="M131.039,164.149c0.283-1.009,0.603-2.219,2.183-3.517c0.82,1.862,0.501,3.076,0.223,4.082
				c-0.279,1.008-1.07,1.714-1.732,1.556C131.047,166.112,130.761,165.158,131.039,164.149z"/>
		</g>
		<g>
			<path fill="#F9F9F9" d="M124.315,162.404c0.938,0.347,2.098,0.753,4.048,0.131c-1.218-1.65-2.377-2.058-3.315-2.404
				c-0.941-0.343-1.839-0.127-2.041,0.502C122.806,161.261,123.373,162.062,124.315,162.404z"/>
			<path fill="#F9F9F9" d="M126.315,166.557c0.354-0.969,0.76-2.129,2.451-3.265c0.699,1.907,0.289,3.07-0.063,4.034
				c-0.354,0.969-1.2,1.591-1.859,1.379C126.182,168.493,125.962,167.525,126.315,166.557z"/>
		</g>
		<g>
			<path fill="#F9F9F9" d="M119.753,164.479c0.935,0.458,2.057,0.921,3.98,0.29c-1.103-1.712-2.212-2.142-3.106-2.502
				c-0.885-0.329-1.836-0.272-2.075,0.35C118.307,163.215,118.824,164.056,119.753,164.479z"/>
			<path fill="#F9F9F9" d="M121.484,168.749c0.437-0.888,0.911-2.037,2.609-3.2c0.581,1.956,0.124,3.144-0.273,4.128
				c-0.38,1.019-1.308,1.486-1.949,1.237C121.219,170.646,121.063,169.67,121.484,168.749z"/>
		</g>
		<g>
			<path fill="#F9F9F9" d="M115.039,166.207c0.88,0.438,1.97,0.965,3.964,0.545c-0.995-1.789-2.088-2.313-2.969-2.758
				c-0.882-0.437-1.789-0.309-2.064,0.3C113.693,164.902,114.158,165.764,115.039,166.207z"/>
			<path fill="#F9F9F9" d="M116.498,170.578c0.468-0.935,1.012-2.061,2.814-3.026c0.454,1.983-0.092,3.11-0.559,4.042
				c-0.464,0.935-1.375,1.472-1.997,1.189C116.132,172.505,116.034,171.51,116.498,170.578z"/>
		</g>
		<g>
			<path fill="#F9F9F9" d="M110.228,167.612c0.857,0.512,1.927,1.156,3.953,0.905c-0.877-1.826-1.946-2.476-2.8-2.989
				c-0.86-0.518-1.785-0.484-2.105,0.094C108.96,166.197,109.37,167.092,110.228,167.612z"/>
			<path fill="#F9F9F9" d="M111.407,172.064c0.531-0.881,1.16-1.92,3.029-2.73c0.333,2.027-0.296,3.066-0.823,3.951
				c-0.531,0.877-1.483,1.324-2.092,0.984C110.913,173.934,110.879,172.941,111.407,172.064z"/>
		</g>
		<g>
			<path fill="#F9F9F9" d="M105.359,168.816c0.834,0.625,1.828,1.193,3.849,0.995c-0.759-1.894-1.768-2.528-2.582-3.06
				c-0.81-0.505-1.731-0.505-2.091,0.003C104.179,167.29,104.528,168.218,105.359,168.816z"/>
			<path fill="#F9F9F9" d="M106.256,173.335c0.596-0.79,1.258-1.93,3.157-2.693c0.202,2.034-0.474,3.104-1.049,3.991
				c-0.571,0.911-1.543,1.318-2.138,0.895C105.638,175.138,105.668,174.152,106.256,173.335z"/>
		</g>
		<g>
			<path fill="#F9F9F9" d="M100.399,169.569c0.779,0.608,1.755,1.338,3.796,1.318c-0.643-1.943-1.617-2.677-2.4-3.282
				s-1.701-0.659-2.088-0.117C99.32,168.029,99.612,168.964,100.399,169.569z"/>
			<path fill="#F9F9F9" d="M101.008,174.139c0.636-0.82,1.382-1.815,3.339-2.403c0.071,2.03-0.676,3.025-1.312,3.846
				c-0.635,0.823-1.631,1.17-2.191,0.773C100.285,175.954,100.376,174.962,101.008,174.139z"/>
		</g>
		<g>
			<path fill="#F9F9F9" d="M95.409,170.08c0.743,0.633,1.685,1.607,3.706,1.584c-0.515-1.963-1.433-2.68-2.179-3.393
				c-0.75-0.683-1.665-0.83-2.088-0.329C94.428,168.439,94.663,169.397,95.409,170.08z"/>
			<path fill="#F9F9F9" d="M95.736,174.677c0.682-0.801,1.506-1.561,3.479-2.162c-0.057,2.052-0.854,3.073-1.547,3.793
				c-0.686,0.753-1.705,1.002-2.235,0.552C94.898,176.408,95.05,175.43,95.736,174.677z"/>
		</g>
		<g>
			<path fill="#F9F9F9" d="M90.396,170.333c0.703,0.682,1.577,1.51,3.602,1.694c-0.394-2.001-1.269-2.828-1.971-3.51
				c-0.703-0.684-1.607-0.828-2.058-0.326C89.519,168.695,89.694,169.653,90.396,170.333z"/>
			<path fill="#F9F9F9" d="M90.434,174.942c0.732-0.753,1.597-1.668,3.608-2.058c-0.183,2.031-1.046,2.945-1.779,3.698
				c-0.729,0.757-1.762,0.999-2.267,0.545C89.492,176.674,89.704,175.695,90.434,174.942z"/>
		</g>
		<g>
			<path fill="#F9F9F9" d="M85.383,170.147c0.656,0.75,1.477,1.661,3.484,2.051c-0.269-2.03-1.09-2.945-1.746-3.698
				c-0.659-0.753-1.55-0.988-2.031-0.534C84.61,168.42,84.724,169.395,85.383,170.147z"/>
			<path fill="#F9F9F9" d="M85.135,174.747c0.776-0.679,1.694-1.503,3.722-1.688c-0.306,2.004-1.224,2.831-2.001,3.51
				c-0.773,0.68-1.819,0.82-2.293,0.316C84.089,176.381,84.361,175.426,85.135,174.747z"/>
		</g>
		<g>
			<path fill="#F9F9F9" d="M80.38,169.777c0.602,0.848,1.365,1.806,3.355,2.166c-0.141-2.031-0.908-2.938-1.52-3.685
				c-0.619-0.721-1.483-1.124-1.991-0.693C79.722,167.969,79.775,168.957,80.38,169.777z"/>
			<path fill="#F9F9F9" d="M79.849,174.354c0.807-0.571,1.775-1.342,3.826-1.557c-0.434,2.001-1.405,2.821-2.226,3.494
				c-0.824,0.705-1.863,0.668-2.303,0.144C78.706,175.884,79.036,174.956,79.849,174.354z"/>
		</g>
		<g>
			<path fill="#F9F9F9" d="M75.421,169.018c0.558,0.811,1.261,1.796,3.214,2.388c-0.017-2.045-0.719-3.033-1.277-3.843
				c-0.565-0.811-1.422-1.137-1.957-0.737C74.867,167.229,74.859,168.208,75.421,169.018z"/>
			<path fill="#F9F9F9" d="M74.601,173.554c0.858-0.596,1.873-1.321,3.917-1.301c-0.555,1.96-1.574,2.686-2.432,3.28
				c-0.857,0.593-1.913,0.626-2.323,0.081C73.354,175.066,73.743,174.149,74.601,173.554z"/>
		</g>
		<g>
			<path fill="#F9F9F9" d="M70.522,167.949c0.507,0.854,1.129,1.96,3.033,2.683c0.104-1.99-0.518-3.1-1.022-3.954
				c-0.504-0.87-1.331-1.284-1.886-0.935C70.092,166.093,70.021,167.075,70.522,167.949z"/>
			<path fill="#F9F9F9" d="M69.419,172.421c0.891-0.525,1.933-1.11,3.968-0.948c-0.686,1.97-1.732,2.556-2.623,3.08
				c-0.887,0.514-1.937,0.443-2.306-0.145C68.084,173.819,68.532,172.932,69.419,172.421z"/>
		</g>
		<g>
			<path fill="#F9F9F9" d="M65.674,166.671c0.437,0.915,1.032,1.917,2.902,2.71c0.242-2.023-0.336-3.069-0.797-3.927
				c-0.461-0.847-1.278-1.258-1.839-0.988C65.371,164.762,65.233,165.746,65.674,166.671z"/>
			<path fill="#F9F9F9" d="M64.289,171.065c0.911-0.44,2.031-1.096,4.065-0.857c-0.8,1.883-1.906,2.495-2.837,2.992
				c-0.932,0.512-1.991,0.431-2.31-0.229C62.88,172.347,63.377,171.496,64.289,171.065z"/>
		</g>
		<g>
			<path fill="#F9F9F9" d="M60.96,164.943c0.396,0.907,0.898,2.017,2.697,2.985c0.37-2.018-0.131-3.127-0.525-4.034
				c-0.396-0.908-1.176-1.399-1.775-1.11C60.758,163.073,60.563,164.035,60.96,164.943z"/>
			<path fill="#F9F9F9" d="M59.299,169.243c0.955-0.413,2.084-0.928,4.082-0.505c-0.915,1.816-2.044,2.33-2.999,2.744
				c-0.948,0.417-1.991,0.239-2.29-0.38C57.793,170.484,58.351,169.656,59.299,169.243z"/>
		</g>
		<g>
			<path fill="#F9F9F9" d="M56.347,162.993c0.343,0.91,0.706,2.209,2.485,3.167c0.49-1.964,0.037-3.04-0.279-4.024
				c-0.33-0.955-1.059-1.523-1.671-1.288C56.273,161.083,56.018,162.038,56.347,162.993z"/>
			<path fill="#F9F9F9" d="M54.417,167.176c0.982-0.37,2.078-0.652,4.092-0.222c-1.036,1.775-2.226,2.279-3.177,2.581
				c-0.965,0.33-1.98,0.062-2.232-0.591S53.452,167.509,54.417,167.176z"/>
		</g>
		<g>
			<path fill="#F9F9F9" d="M51.825,160.813c0.286,0.936,0.656,2.075,2.34,3.208c0.622-1.943,0.252-3.087-0.034-4.018
				c-0.283-0.945-1.022-1.477-1.638-1.288C51.882,158.892,51.549,159.855,51.825,160.813z"/>
			<path fill="#F9F9F9" d="M49.636,164.869c1.005-0.31,2.203-0.696,4.156-0.074c-1.14,1.694-2.337,2.078-3.346,2.391
				c-0.999,0.303-2.038,0.051-2.239-0.629C48.009,165.867,48.644,165.154,49.636,164.869z"/>
		</g>
		<g>
			<path fill="#F9F9F9" d="M47.528,158.225c0.215,0.969,0.495,2.159,2.075,3.457c0.743-1.91,0.464-3.101,0.249-4.068
				c-0.219-0.976-0.888-1.607-1.53-1.436C47.679,156.349,47.31,157.254,47.528,158.225z"/>
			<path fill="#F9F9F9" d="M45.087,162.136c1.012-0.226,2.215-0.512,4.092,0.292c-1.237,1.607-2.444,1.893-3.457,2.118
				c-1.009,0.229-1.997-0.147-2.172-0.813S44.078,162.36,45.087,162.136z"/>
		</g>
		<g>
			<path fill="#F9F9F9" d="M43.352,155.448c0.165,0.961,0.266,2.326,1.859,3.563c0.864-1.858,0.595-2.966,0.464-3.98
				c-0.141-1.002-0.75-1.701-1.392-1.588C43.641,153.562,43.211,154.449,43.352,155.448z"/>
			<path fill="#F9F9F9" d="M40.672,159.2c1.036-0.182,2.149-0.235,4.072,0.531c-1.338,1.526-2.626,1.836-3.625,1.964
				c-1.005,0.141-1.95-0.319-2.071-1.009C38.924,159.997,39.664,159.342,40.672,159.2z"/>
		</g>
		<g>
			<path fill="#F9F9F9" d="M39.331,152.445c0.104,0.972,0.252,2.169,1.691,3.604c0.972-1.796,0.828-2.989,0.723-3.965
				c-0.107-0.972-0.709-1.66-1.375-1.562C39.721,150.6,39.22,151.477,39.331,152.445z"/>
			<path fill="#F9F9F9" d="M36.422,156.02c1.042-0.114,2.29-0.266,4.088,0.72c-1.439,1.445-2.687,1.6-3.729,1.715
				c-1.045,0.114-1.994-0.356-2.091-1.029C34.61,156.726,35.373,156.141,36.422,156.02z"/>
		</g>
		<g>
			<path fill="#F9F9F9" d="M35.585,149.106c0.027,0.995,0.081,2.22,1.382,3.793c1.089-1.735,1.039-2.959,1.012-3.954
				c-0.03-0.999-0.568-1.748-1.23-1.701C36.089,147.291,35.555,148.111,35.585,149.106z"/>
			<path fill="#F9F9F9" d="M32.458,152.492c1.032-0.03,2.269-0.084,3.954,1.062c-1.517,1.349-2.753,1.402-3.786,1.433
				c-1.032,0.03-1.93-0.521-1.973-1.21C30.605,153.088,31.426,152.522,32.458,152.492z"/>
		</g>
		<g>
			<path fill="#F9F9F9" d="M31.994,145.61c-0.037,0.995-0.151,2.306,1.173,3.832c1.187-1.653,1.16-2.823,1.184-3.809
				c0.05-1.013-0.417-1.815-1.069-1.823C32.63,143.805,32.042,144.595,31.994,145.61z"/>
			<path fill="#F9F9F9" d="M28.662,148.791c1.029,0.037,2.175,0.15,3.91,1.271c-1.607,1.265-2.895,1.291-3.94,1.271
				c-1.015-0.051-1.853-0.68-1.842-1.383C26.796,149.248,27.647,148.743,28.662,148.791z"/>
		</g>
		<g>
			<path fill="#F9F9F9" d="M28.615,141.895c-0.081,0.979-0.162,2.182,0.982,3.863c1.291-1.58,1.372-2.784,1.452-3.759
				c0.081-0.982-0.383-1.771-1.056-1.803C29.321,140.17,28.696,140.916,28.615,141.895z"/>
			<path fill="#F9F9F9" d="M25.091,144.863c1.046,0.088,2.296,0.172,3.874,1.477c-1.681,1.153-2.932,1.072-3.978,0.984
				c-1.045-0.08-1.886-0.726-1.855-1.405C23.158,145.24,24.049,144.782,25.091,144.863z"/>
		</g>
		<g>
			<path fill="#F9F9F9" d="M25.552,137.924c-0.161,0.985-0.339,2.199,0.643,3.991c1.396-1.503,1.574-2.717,1.735-3.702
				c0.158-0.988-0.229-1.826-0.884-1.903C26.389,136.229,25.71,136.938,25.552,137.924z"/>
			<path fill="#F9F9F9" d="M21.847,140.667c1.019,0.165,2.243,0.344,3.682,1.789c-1.742,1.042-2.965,0.861-3.984,0.695
				c-1.019-0.164-1.792-0.877-1.708-1.562C19.92,140.903,20.832,140.506,21.847,140.667z"/>
		</g>
		<g>
			<path fill="#F9F9F9" d="M22.667,133.821c-0.245,0.988-0.558,2.227,0.451,3.981c1.469-1.405,1.681-2.575,1.866-3.521
				c0.218-0.972-0.07-1.859-0.713-1.986C23.636,132.167,22.906,132.833,22.667,133.821z"/>
			<path fill="#F9F9F9" d="M18.8,136.33c0.982,0.242,2.132,0.534,3.618,1.971c-1.819,0.94-3.07,0.712-4.116,0.511
				c-1.008-0.222-1.694-1.013-1.556-1.694C16.884,136.424,17.815,136.088,18.8,136.33z"/>
		</g>
		<g>
			<path fill="#F9F9F9" d="M20.062,129.531c-0.263,0.948-0.572,2.115,0.229,3.988c1.563-1.315,1.873-2.482,2.135-3.43
				c0.266-0.948-0.037-1.812-0.692-1.967C21.08,127.972,20.324,128.587,20.062,129.531z"/>
			<path fill="#F9F9F9" d="M16.043,131.791c1.009,0.282,2.219,0.599,3.517,2.179c-1.866,0.82-3.077,0.505-4.085,0.223
				c-1.009-0.276-1.711-1.07-1.554-1.732C14.077,131.798,15.035,131.512,16.043,131.791z"/>
		</g>
		<g>
			<path fill="#F9F9F9" d="M17.785,125.066c-0.343,0.935-0.75,2.098-0.131,4.045c1.655-1.218,2.062-2.377,2.404-3.315
				c0.346-0.938,0.128-1.839-0.501-2.041C18.932,123.554,18.128,124.125,17.785,125.066z"/>
			<path fill="#F9F9F9" d="M13.633,127.063c0.968,0.356,2.132,0.764,3.265,2.455c-1.903,0.699-3.066,0.288-4.035-0.064
				c-0.965-0.353-1.59-1.2-1.375-1.859C11.699,126.933,12.668,126.714,13.633,127.063z"/>
		</g>
		<g>
			<path fill="#F9F9F9" d="M15.711,120.501c-0.458,0.935-0.921,2.061-0.286,3.983c1.711-1.103,2.142-2.212,2.501-3.109
				c0.326-0.881,0.269-1.836-0.353-2.071C16.975,119.055,16.134,119.576,15.711,120.501z"/>
			<path fill="#F9F9F9" d="M11.44,122.235c0.891,0.438,2.038,0.908,3.205,2.606c-1.96,0.581-3.147,0.124-4.129-0.273
				c-1.022-0.376-1.486-1.304-1.237-1.946C9.548,121.97,10.523,121.812,11.44,122.235z"/>
		</g>
		<g>
			<path fill="#F9F9F9" d="M13.986,115.79c-0.44,0.881-0.968,1.97-0.544,3.964c1.785-0.995,2.313-2.088,2.753-2.969
				c0.44-0.885,0.312-1.792-0.299-2.067C15.287,114.445,14.426,114.905,13.986,115.79z"/>
			<path fill="#F9F9F9" d="M9.615,117.249c0.932,0.468,2.058,1.012,3.026,2.814c-1.987,0.451-3.11-0.091-4.045-0.558
				c-0.935-0.465-1.473-1.376-1.19-1.998C7.688,116.883,8.68,116.785,9.615,117.249z"/>
		</g>
		<g>
			<path fill="#F9F9F9" d="M12.581,110.979c-0.515,0.854-1.16,1.924-0.905,3.954c1.826-0.878,2.472-1.946,2.986-2.805
				c0.521-0.859,0.484-1.781-0.091-2.102C13.996,109.711,13.098,110.118,12.581,110.979z"/>
			<path fill="#F9F9F9" d="M8.125,112.159c0.884,0.531,1.92,1.16,2.73,3.028c-2.028,0.333-3.067-0.296-3.951-0.826
				c-0.877-0.528-1.321-1.479-0.985-2.088C6.256,111.665,7.248,111.631,8.125,112.159z"/>
		</g>
		<g>
			<path fill="#F9F9F9" d="M11.374,106.11c-0.625,0.834-1.194,1.828-0.992,3.85c1.89-0.76,2.528-1.771,3.056-2.586
				c0.508-0.807,0.505-1.729-0.003-2.091C12.899,104.927,11.972,105.279,11.374,106.11z"/>
			<path fill="#F9F9F9" d="M6.854,107.008c0.79,0.596,1.93,1.254,2.693,3.157c-2.034,0.202-3.104-0.475-3.991-1.049
				c-0.911-0.572-1.318-1.547-0.895-2.139C5.052,106.386,6.038,106.42,6.854,107.008z"/>
		</g>
		<g>
			<path fill="#F9F9F9" d="M10.62,101.147c-0.608,0.783-1.338,1.755-1.318,3.799c1.943-0.646,2.676-1.617,3.282-2.4
				c0.605-0.786,0.662-1.701,0.117-2.091C12.16,100.071,11.226,100.363,10.62,101.147z"/>
			<path fill="#F9F9F9" d="M6.051,101.76c0.821,0.635,1.816,1.381,2.408,3.335c-2.034,0.074-3.029-0.672-3.85-1.312
				c-0.824-0.632-1.17-1.627-0.77-2.188C4.235,101.033,5.23,101.127,6.051,101.76z"/>
		</g>
		<g>
			<path fill="#F9F9F9" d="M10.113,96.161c-0.636,0.743-1.611,1.685-1.587,3.705c1.963-0.515,2.679-1.433,3.392-2.182
				c0.683-0.747,0.831-1.665,0.33-2.085C11.75,95.18,10.792,95.411,10.113,96.161z"/>
			<path fill="#F9F9F9" d="M5.513,96.487c0.8,0.679,1.561,1.506,2.162,3.477c-2.051-0.054-3.073-0.854-3.792-1.543
				c-0.756-0.683-1.002-1.705-0.552-2.236C3.782,95.646,4.76,95.802,5.513,96.487z"/>
		</g>
		<g>
			<path fill="#F9F9F9" d="M9.857,91.147c-0.683,0.699-1.51,1.574-1.694,3.598c2.004-0.39,2.828-1.264,3.51-1.967
				c0.683-0.702,0.828-1.606,0.327-2.057C11.498,90.27,10.536,90.442,9.857,91.147z"/>
			<path fill="#F9F9F9" d="M5.248,91.185C6,91.918,6.915,92.782,7.305,94.793c-2.031-0.182-2.945-1.05-3.698-1.779
				c-0.757-0.729-0.999-1.762-0.545-2.266C3.516,90.243,4.494,90.456,5.248,91.185z"/>
		</g>
		<g>
			<path fill="#F9F9F9" d="M10.042,86.131c-0.75,0.659-1.661,1.479-2.054,3.487c2.034-0.269,2.948-1.089,3.702-1.745
				c0.75-0.659,0.989-1.553,0.535-2.031C11.77,85.361,10.795,85.472,10.042,86.131z"/>
			<path fill="#F9F9F9" d="M5.442,85.886c0.679,0.776,1.503,1.694,1.688,3.722c-2.003-0.309-2.831-1.224-3.51-2.004
				c-0.68-0.773-0.82-1.815-0.316-2.29C3.805,84.84,4.763,85.109,5.442,85.886z"/>
		</g>
		<g>
			<path fill="#F9F9F9" d="M10.415,81.132c-0.851,0.602-1.809,1.362-2.166,3.355c2.028-0.145,2.936-0.911,3.682-1.523
				c0.716-0.619,1.123-1.479,0.692-1.987C12.221,80.473,11.232,80.523,10.415,81.132z"/>
			<path fill="#F9F9F9" d="M5.835,80.597c0.572,0.81,1.342,1.779,1.557,3.826c-2.001-0.43-2.821-1.405-3.494-2.226
				c-0.706-0.82-0.672-1.859-0.144-2.299C4.306,79.454,5.234,79.787,5.835,80.597z"/>
		</g>
		<g>
			<path fill="#F9F9F9" d="M11.171,76.172c-0.81,0.558-1.799,1.261-2.387,3.214c2.044-0.017,3.033-0.72,3.843-1.277
				c0.81-0.565,1.137-1.423,0.733-1.957C12.96,75.618,11.982,75.607,11.171,76.172z"/>
			<path fill="#F9F9F9" d="M6.636,75.352c0.596,0.854,1.318,1.873,1.298,3.917c-1.957-0.555-2.683-1.574-3.275-2.431
				c-0.595-0.857-0.629-1.917-0.081-2.327C5.123,74.102,6.044,74.495,6.636,75.352z"/>
		</g>
		<g>
			<path fill="#F9F9F9" d="M12.245,71.273c-0.858,0.508-1.964,1.126-2.687,3.033c1.994,0.104,3.097-0.518,3.954-1.021
				c0.871-0.504,1.284-1.332,0.935-1.886C14.094,70.843,13.112,70.773,12.245,71.273z"/>
			<path fill="#F9F9F9" d="M7.769,70.167c0.528,0.895,1.109,1.937,0.948,3.971c-1.97-0.689-2.556-1.731-3.08-2.623
				c-0.514-0.888-0.444-1.937,0.145-2.306C6.371,68.836,7.255,69.283,7.769,70.167z"/>
		</g>
		<g>
			<path fill="#F9F9F9" d="M13.519,66.422c-0.915,0.444-1.917,1.036-2.71,2.905c2.024,0.242,3.07-0.336,3.927-0.796
				c0.847-0.461,1.257-1.278,0.988-1.839C15.425,66.119,14.443,65.985,13.519,66.422z"/>
			<path fill="#F9F9F9" d="M9.124,65.037c0.44,0.915,1.096,2.031,0.854,4.068c-1.879-0.8-2.491-1.91-2.992-2.838
				c-0.508-0.935-0.427-1.99,0.232-2.31C7.843,63.631,8.693,64.129,9.124,65.037z"/>
		</g>
		<g>
			<path fill="#F9F9F9" d="M15.247,61.711c-0.908,0.397-2.017,0.897-2.982,2.693c2.015,0.373,3.124-0.128,4.031-0.525
				c0.908-0.393,1.399-1.17,1.11-1.771C17.116,61.51,16.155,61.314,15.247,61.711z"/>
			<path fill="#F9F9F9" d="M10.946,60.051c0.417,0.951,0.928,2.084,0.504,4.082c-1.815-0.915-2.33-2.048-2.744-3
				c-0.417-0.951-0.239-1.994,0.38-2.29C9.706,58.541,10.533,59.099,10.946,60.051z"/>
		</g>
		<g>
			<path fill="#F9F9F9" d="M17.2,57.095c-0.915,0.346-2.212,0.706-3.171,2.488c1.967,0.491,3.043,0.034,4.025-0.279
				c0.955-0.326,1.526-1.059,1.288-1.671C19.106,57.024,18.155,56.769,17.2,57.095z"/>
			<path fill="#F9F9F9" d="M13.014,55.165c0.373,0.985,0.652,2.078,0.222,4.095c-1.775-1.036-2.279-2.226-2.582-3.181
				c-0.33-0.961-0.061-1.977,0.591-2.229C11.898,53.598,12.681,54.204,13.014,55.165z"/>
		</g>
		<g>
			<path fill="#F9F9F9" d="M19.375,52.576c-0.931,0.286-2.074,0.652-3.208,2.34c1.943,0.618,3.086,0.252,4.018-0.034
				c0.944-0.282,1.476-1.022,1.288-1.637C21.299,52.633,20.334,52.3,19.375,52.576z"/>
			<path fill="#F9F9F9" d="M15.321,50.384c0.309,1.009,0.696,2.206,0.074,4.159c-1.691-1.14-2.078-2.337-2.391-3.345
				c-0.303-0.999-0.047-2.038,0.629-2.239C14.322,48.756,15.035,49.396,15.321,50.384z"/>
		</g>
		<g>
			<path fill="#F9F9F9" d="M21.964,48.279c-0.968,0.215-2.158,0.495-3.453,2.072c1.91,0.746,3.096,0.467,4.068,0.252
				c0.972-0.219,1.604-0.888,1.435-1.53C23.844,48.434,22.936,48.061,21.964,48.279z"/>
			<path fill="#F9F9F9" d="M18.058,45.838c0.222,1.009,0.508,2.216-0.293,4.092c-1.61-1.241-1.896-2.444-2.121-3.457
				s0.148-1.997,0.813-2.172C17.123,44.127,17.832,44.829,18.058,45.838z"/>
		</g>
		<g>
			<path fill="#F9F9F9" d="M24.742,44.104c-0.961,0.168-2.323,0.262-3.564,1.859c1.859,0.864,2.966,0.595,3.984,0.464
				c1.002-0.142,1.702-0.75,1.584-1.396C26.631,44.393,25.744,43.962,24.742,44.104z"/>
			<path fill="#F9F9F9" d="M20.993,41.42c0.182,1.036,0.232,2.152-0.535,4.075c-1.526-1.338-1.833-2.625-1.96-3.625
				c-0.145-1.008,0.319-1.95,1.005-2.071C20.192,39.672,20.848,40.415,20.993,41.42z"/>
		</g>
		<g>
			<path fill="#F9F9F9" d="M27.748,40.082c-0.975,0.107-2.169,0.249-3.604,1.691c1.792,0.971,2.989,0.827,3.96,0.723
				c0.975-0.107,1.664-0.709,1.563-1.375C29.593,40.472,28.713,39.971,27.748,40.082z"/>
			<path fill="#F9F9F9" d="M24.173,37.17c0.111,1.045,0.266,2.293-0.719,4.088c-1.449-1.432-1.601-2.683-1.715-3.725
				c-0.114-1.042,0.356-1.994,1.029-2.092C23.464,35.361,24.053,36.125,24.173,37.17z"/>
		</g>
		<g>
			<path fill="#F9F9F9" d="M31.083,36.336c-0.995,0.027-2.216,0.081-3.793,1.382c1.738,1.093,2.962,1.039,3.958,1.012
				c0.996-0.03,1.745-0.565,1.701-1.231C32.902,36.841,32.078,36.306,31.083,36.336z"/>
			<path fill="#F9F9F9" d="M27.697,33.209c0.03,1.032,0.084,2.27-1.059,3.954c-1.348-1.516-1.402-2.75-1.433-3.786
				c-0.034-1.032,0.521-1.93,1.21-1.974C27.105,31.357,27.667,32.177,27.697,33.209z"/>
		</g>
		<g>
			<path fill="#F9F9F9" d="M34.583,32.746c-0.995-0.037-2.31-0.151-3.836,1.173c1.657,1.187,2.827,1.16,3.812,1.184
				c1.012,0.05,1.815-0.414,1.822-1.066S35.595,32.792,34.583,32.746z"/>
			<path fill="#F9F9F9" d="M31.399,29.414c-0.034,1.032-0.148,2.175-1.271,3.91c-1.261-1.607-1.288-2.898-1.268-3.94
				c0.05-1.016,0.682-1.849,1.381-1.843C30.945,27.548,31.45,28.398,31.399,29.414z"/>
		</g>
		<g>
			<path fill="#F9F9F9" d="M38.298,29.37c-0.979-0.081-2.179-0.161-3.867,0.979c1.584,1.291,2.788,1.375,3.762,1.456
				c0.979,0.077,1.772-0.383,1.799-1.056C40.023,30.076,39.277,29.447,38.298,29.37z"/>
			<path fill="#F9F9F9" d="M35.33,25.843c-0.088,1.046-0.171,2.296-1.476,3.873c-1.157-1.678-1.069-2.932-0.985-3.977
				c0.084-1.042,0.723-1.886,1.406-1.856C34.953,23.91,35.414,24.801,35.33,25.843z"/>
		</g>
		<g>
			<path fill="#F9F9F9" d="M42.27,26.303c-0.985-0.158-2.199-0.336-3.991,0.642c1.503,1.396,2.716,1.577,3.702,1.735
				c0.985,0.158,1.826-0.226,1.903-0.885C43.964,27.141,43.254,26.461,42.27,26.303z"/>
			<path fill="#F9F9F9" d="M39.525,22.602c-0.165,1.019-0.346,2.239-1.789,3.678c-1.039-1.742-0.861-2.962-0.696-3.984
				c0.162-1.015,0.877-1.792,1.563-1.708S39.69,21.583,39.525,22.602z"/>
		</g>
		<g>
			<path fill="#F9F9F9" d="M46.371,23.418c-0.988-0.242-2.226-0.555-3.978,0.451c1.402,1.473,2.569,1.685,3.517,1.87
				c0.972,0.215,1.862-0.071,1.987-0.713C48.025,24.387,47.356,23.661,46.371,23.418z"/>
			<path fill="#F9F9F9" d="M43.866,19.552c-0.246,0.981-0.538,2.131-1.97,3.618c-0.941-1.816-0.716-3.07-0.514-4.112
				c0.221-1.009,1.012-1.695,1.698-1.557C43.769,17.639,44.105,18.566,43.866,19.552z"/>
		</g>
		<g>
			<path fill="#F9F9F9" d="M50.662,20.816c-0.948-0.265-2.115-0.571-3.988,0.229c1.314,1.563,2.481,1.873,3.426,2.135
				c0.948,0.266,1.815-0.037,1.97-0.692C52.221,21.835,51.606,21.079,50.662,20.816z"/>
			<path fill="#F9F9F9" d="M48.402,16.795c-0.279,1.009-0.598,2.223-2.182,3.521c-0.817-1.866-0.5-3.077-0.218-4.085
				c0.279-1.009,1.069-1.715,1.731-1.557C48.395,14.832,48.681,15.79,48.402,16.795z"/>
		</g>
		<g>
			<path fill="#F9F9F9" d="M55.13,18.54c-0.941-0.343-2.098-0.75-4.048-0.131c1.217,1.654,2.377,2.061,3.315,2.404
				c0.941,0.346,1.836,0.127,2.041-0.501C56.636,19.687,56.068,18.883,55.13,18.54z"/>
			<path fill="#F9F9F9" d="M53.129,14.387c-0.356,0.969-0.763,2.132-2.455,3.265c-0.696-1.906-0.289-3.066,0.064-4.035
				c0.353-0.965,1.204-1.59,1.863-1.375C53.261,12.455,53.482,13.422,53.129,14.387z"/>
		</g>
		<g>
			<path fill="#F9F9F9" d="M59.693,16.465c-0.936-0.457-2.062-0.921-3.985-0.286c1.103,1.711,2.212,2.142,3.11,2.501
				c0.881,0.326,1.835,0.269,2.075-0.353C61.138,17.729,60.617,16.889,59.693,16.465z"/>
			<path fill="#F9F9F9" d="M57.958,12.195c-0.434,0.888-0.908,2.038-2.606,3.204c-0.582-1.96-0.125-3.146,0.272-4.132
				c0.377-1.019,1.308-1.482,1.947-1.237C58.223,10.299,58.381,11.274,57.958,12.195z"/>
		</g>
		<g>
			<path fill="#F9F9F9" d="M64.403,14.741c-0.881-0.44-1.97-0.968-3.964-0.548c0.999,1.789,2.088,2.316,2.969,2.756
				c0.881,0.441,1.792,0.313,2.068-0.299C65.748,16.042,65.287,15.181,64.403,14.741z"/>
			<path fill="#F9F9F9" d="M62.944,10.37c-0.468,0.931-1.009,2.058-2.811,3.023c-0.454-1.984,0.087-3.107,0.555-4.042
				c0.464-0.935,1.375-1.473,2-1.19C63.31,8.443,63.408,9.438,62.944,10.37z"/>
		</g>
		<g>
			<path fill="#F9F9F9" d="M69.214,13.335c-0.854-0.514-1.923-1.16-3.951-0.904c0.874,1.826,1.943,2.471,2.801,2.986
				c0.861,0.521,1.786,0.484,2.102-0.094C70.482,14.75,70.075,13.853,69.214,13.335z"/>
			<path fill="#F9F9F9" d="M68.034,8.88c-0.531,0.884-1.157,1.92-3.026,2.73c-0.336-2.027,0.292-3.066,0.823-3.951
				c0.528-0.877,1.483-1.321,2.092-0.985C68.532,7.011,68.565,8.003,68.034,8.88z"/>
		</g>
		<g>
			<path fill="#F9F9F9" d="M74.083,12.128c-0.831-0.625-1.826-1.19-3.85-0.992c0.759,1.89,1.771,2.528,2.585,3.057
				c0.81,0.507,1.728,0.504,2.091,0C75.267,13.655,74.913,12.727,74.083,12.128z"/>
			<path fill="#F9F9F9" d="M73.185,7.609c-0.595,0.791-1.254,1.93-3.157,2.693c-0.202-2.034,0.474-3.103,1.052-3.991
				c0.568-0.908,1.543-1.318,2.135-0.895C73.807,5.807,73.777,6.792,73.185,7.609z"/>
		</g>
		<g>
			<path fill="#F9F9F9" d="M79.046,11.375c-0.784-0.605-1.755-1.338-3.796-1.318c0.643,1.943,1.614,2.676,2.397,3.282
				c0.787,0.604,1.705,0.659,2.091,0.117C80.122,12.915,79.829,11.98,79.046,11.375z"/>
			<path fill="#F9F9F9" d="M78.434,6.806c-0.636,0.824-1.382,1.815-3.335,2.404c-0.07-2.031,0.676-3.026,1.312-3.846
				c0.632-0.82,1.63-1.17,2.189-0.77C79.16,4.99,79.069,5.982,78.434,6.806z"/>
		</g>
		<g>
			<path fill="#F9F9F9" d="M84.032,10.864c-0.74-0.632-1.684-1.607-3.705-1.584c0.518,1.967,1.432,2.68,2.182,3.393
				c0.746,0.683,1.664,0.831,2.084,0.33C85.014,12.505,84.782,11.546,84.032,10.864z"/>
			<path fill="#F9F9F9" d="M83.709,6.268c-0.683,0.804-1.509,1.56-3.479,2.162c0.054-2.051,0.854-3.073,1.543-3.793
				c0.686-0.753,1.705-1.002,2.239-0.551S84.392,5.518,83.709,6.268z"/>
		</g>
		<g>
			<path fill="#F9F9F9" d="M89.045,10.612c-0.699-0.683-1.574-1.51-3.598-1.695c0.394,2,1.268,2.828,1.967,3.511
				c0.706,0.682,1.607,0.83,2.058,0.326C89.922,12.249,89.751,11.294,89.045,10.612z"/>
			<path fill="#F9F9F9" d="M89.008,6.002c-0.732,0.753-1.593,1.667-3.604,2.058c0.181-2.031,1.045-2.945,1.775-3.698
				c0.729-0.753,1.761-0.999,2.266-0.544C89.949,4.271,89.737,5.249,89.008,6.002z"/>
		</g>
		<g>
			<path fill="#F9F9F9" d="M94.062,10.797c-0.659-0.75-1.476-1.661-3.483-2.051c0.266,2.031,1.085,2.945,1.745,3.699
				c0.659,0.75,1.55,0.988,2.031,0.534C94.831,12.525,94.721,11.55,94.062,10.797z"/>
			<path fill="#F9F9F9" d="M94.307,6.197c-0.773,0.679-1.694,1.503-3.722,1.688c0.309-2.004,1.227-2.831,2.004-3.51
				c0.773-0.679,1.815-0.82,2.29-0.315C95.355,4.563,95.084,5.518,94.307,6.197z"/>
		</g>
		<g>
			<path fill="#F9F9F9" d="M99.062,11.167c-0.602-0.848-1.362-1.806-3.356-2.165c0.146,2.03,0.912,2.938,1.523,3.685
				c0.619,0.716,1.479,1.123,1.987,0.692C99.72,12.976,99.67,11.987,99.062,11.167z"/>
			<path fill="#F9F9F9" d="M99.596,6.59c-0.811,0.572-1.778,1.342-3.826,1.557c0.434-2,1.405-2.821,2.226-3.497
				c0.82-0.706,1.859-0.669,2.304-0.141C100.739,5.061,100.406,5.989,99.596,6.59z"/>
		</g>
		<g>
			<path fill="#F9F9F9" d="M104.024,11.926c-0.562-0.81-1.265-1.799-3.215-2.387c0.014,2.044,0.716,3.033,1.277,3.843
				s1.419,1.136,1.957,0.733C104.575,13.715,104.585,12.737,104.024,11.926z"/>
			<path fill="#F9F9F9" d="M104.844,7.391c-0.856,0.595-1.876,1.318-3.92,1.298c0.559-1.957,1.573-2.683,2.431-3.278
				c0.858-0.592,1.917-0.625,2.323-0.081C106.092,5.877,105.698,6.796,104.844,7.391z"/>
		</g>
		<g>
			<path fill="#F9F9F9" d="M108.92,12.996c-0.505-0.854-1.127-1.96-3.033-2.683c-0.104,1.99,0.518,3.097,1.025,3.954
				c0.501,0.871,1.328,1.284,1.887,0.935C109.35,14.848,109.424,13.866,108.92,12.996z"/>
			<path fill="#F9F9F9" d="M110.025,8.524c-0.891,0.524-1.937,1.109-3.971,0.948c0.689-1.971,1.735-2.555,2.623-3.08
				c0.888-0.515,1.936-0.444,2.306,0.141C111.357,7.125,110.909,8.009,110.025,8.524z"/>
		</g>
		<g>
			<path fill="#F9F9F9" d="M113.771,14.273c-0.441-0.915-1.033-1.917-2.901-2.71c-0.242,2.024,0.335,3.066,0.793,3.924
				c0.464,0.851,1.28,1.261,1.843,0.992C114.073,16.18,114.212,15.198,113.771,14.273z"/>
			<path fill="#F9F9F9" d="M115.156,9.879c-0.911,0.44-2.03,1.092-4.068,0.854c0.8-1.879,1.909-2.492,2.838-2.993
				c0.935-0.508,1.993-0.43,2.31,0.229C116.565,8.598,116.064,9.445,115.156,9.879z"/>
		</g>
		<g>
			<path fill="#F9F9F9" d="M118.481,16.001c-0.394-0.908-0.895-2.018-2.692-2.986c-0.374,2.018,0.127,3.127,0.523,4.035
				c0.397,0.907,1.174,1.398,1.772,1.109C118.684,17.868,118.879,16.909,118.481,16.001z"/>
			<path fill="#F9F9F9" d="M120.143,11.701c-0.951,0.414-2.085,0.925-4.082,0.501c0.914-1.816,2.048-2.327,2.999-2.744
				c0.952-0.414,1.994-0.239,2.294,0.383C121.651,10.46,121.094,11.288,120.143,11.701z"/>
		</g>
		<g>
			<path fill="#F9F9F9" d="M123.098,17.952c-0.343-0.915-0.705-2.212-2.488-3.17c-0.487,1.967-0.033,3.042,0.279,4.027
				c0.33,0.955,1.062,1.523,1.671,1.288C123.169,19.858,123.424,18.906,123.098,17.952z"/>
			<path fill="#F9F9F9" d="M125.028,13.769c-0.985,0.371-2.078,0.652-4.093,0.219c1.036-1.772,2.223-2.276,3.178-2.579
				c0.965-0.333,1.98-0.061,2.229,0.592C126.599,12.653,125.993,13.436,125.028,13.769z"/>
		</g>
		<g>
			<path fill="#F9F9F9" d="M127.62,20.13c-0.289-0.935-0.655-2.078-2.343-3.208c-0.619,1.944-0.253,3.087,0.036,4.018
				c0.282,0.942,1.02,1.476,1.638,1.288C127.56,22.054,127.893,21.085,127.62,20.13z"/>
			<path fill="#F9F9F9" d="M129.81,16.072c-1.006,0.313-2.206,0.696-4.16,0.078c1.141-1.695,2.341-2.081,3.347-2.391
				c1.001-0.303,2.037-0.05,2.242,0.628C131.437,15.073,130.801,15.786,129.81,16.072z"/>
		</g>
		<g>
			<path fill="#F9F9F9" d="M131.917,22.719c-0.215-0.968-0.498-2.159-2.074-3.457c-0.746,1.91-0.464,3.1-0.249,4.068
				c0.216,0.972,0.884,1.607,1.526,1.436C131.763,24.595,132.132,23.688,131.917,22.719z"/>
			<path fill="#F9F9F9" d="M134.357,18.809c-1.012,0.226-2.218,0.508-4.095-0.292c1.241-1.607,2.448-1.896,3.457-2.118
				c1.012-0.229,1.997,0.148,2.172,0.813C136.069,17.877,135.366,18.583,134.357,18.809z"/>
		</g>
		<g>
			<path fill="#F9F9F9" d="M136.093,25.493c-0.168-0.961-0.266-2.323-1.859-3.56c-0.867,1.856-0.595,2.965-0.468,3.981
				c0.142,1.002,0.754,1.701,1.396,1.586C135.804,27.383,136.234,26.495,136.093,25.493z"/>
			<path fill="#F9F9F9" d="M138.772,21.744c-1.035,0.182-2.151,0.232-4.071-0.531c1.335-1.526,2.622-1.836,3.621-1.963
				c1.009-0.141,1.95,0.316,2.074,1.009C140.521,20.944,139.778,21.603,138.772,21.744z"/>
		</g>
		<g>
			<path fill="#F9F9F9" d="M140.114,28.499c-0.107-0.972-0.252-2.168-1.691-3.604c-0.975,1.792-0.83,2.989-0.723,3.961
				c0.104,0.975,0.706,1.664,1.376,1.563C139.722,30.345,140.226,29.464,140.114,28.499z"/>
			<path fill="#F9F9F9" d="M143.022,24.925c-1.045,0.114-2.293,0.266-4.088-0.719c1.435-1.446,2.683-1.601,3.729-1.715
				c1.042-0.114,1.99,0.356,2.091,1.029C144.832,24.215,144.068,24.804,143.022,24.925z"/>
		</g>
		<g>
			<path fill="#F9F9F9" d="M143.86,31.837c-0.031-0.995-0.081-2.219-1.386-3.792c-1.089,1.735-1.039,2.959-1.009,3.954
				s0.565,1.749,1.228,1.702C143.355,33.653,143.891,32.833,143.86,31.837z"/>
			<path fill="#F9F9F9" d="M146.987,28.448c-1.036,0.034-2.271,0.084-3.958-1.059c1.517-1.349,2.754-1.402,3.786-1.433
				s1.93,0.521,1.978,1.21C148.84,27.857,148.019,28.418,146.987,28.448z"/>
		</g>
		<g>
			<path fill="#F9F9F9" d="M147.451,35.334c0.033-0.995,0.15-2.31-1.174-3.836c-1.19,1.658-1.16,2.828-1.184,3.81
				c-0.05,1.015,0.414,1.819,1.065,1.826C146.812,37.14,147.4,36.347,147.451,35.334z"/>
			<path fill="#F9F9F9" d="M150.782,32.15c-1.031-0.034-2.175-0.151-3.913-1.271c1.607-1.261,2.898-1.288,3.94-1.268
				c1.016,0.05,1.853,0.679,1.846,1.382C152.646,31.696,151.799,32.201,150.782,32.15z"/>
		</g>
		<g>
			<path fill="#F9F9F9" d="M150.826,39.049c0.081-0.978,0.161-2.182-0.978-3.863c-1.292,1.58-1.376,2.784-1.456,3.759
				c-0.078,0.982,0.383,1.772,1.056,1.802C150.12,40.774,150.749,40.028,150.826,39.049z"/>
			<path fill="#F9F9F9" d="M154.351,36.081c-1.043-0.087-2.297-0.172-3.873-1.476c1.681-1.157,2.935-1.073,3.977-0.985
				c1.046,0.081,1.887,0.726,1.859,1.405C156.283,35.704,155.396,36.162,154.351,36.081z"/>
		</g>
		<g>
			<path fill="#F9F9F9" d="M153.893,43.021c0.158-0.985,0.337-2.199-0.642-3.991c-1.396,1.503-1.577,2.716-1.735,3.702
				c-0.161,0.985,0.226,1.822,0.881,1.903C153.056,44.715,153.735,44.006,153.893,43.021z"/>
			<path fill="#F9F9F9" d="M157.595,40.277c-1.019-0.165-2.239-0.346-3.678-1.789c1.741-1.042,2.962-0.861,3.98-0.696
				c1.019,0.165,1.796,0.877,1.711,1.563C159.524,40.042,158.613,40.438,157.595,40.277z"/>
		</g>
		<g>
			<path fill="#F9F9F9" d="M156.774,47.123c0.245-0.989,0.558-2.226-0.447-3.981c-1.473,1.405-1.685,2.576-1.869,3.52
				c-0.216,0.972,0.07,1.859,0.713,1.987C155.81,48.777,156.535,48.108,156.774,47.123z"/>
			<path fill="#F9F9F9" d="M160.645,44.614c-0.982-0.242-2.135-0.538-3.621-1.97c1.819-0.941,3.073-0.713,4.115-0.511
				c1.009,0.222,1.694,1.012,1.557,1.695C162.558,44.52,161.629,44.856,160.645,44.614z"/>
		</g>
		<g>
			<path fill="#F9F9F9" d="M159.38,51.413c0.266-0.948,0.572-2.115-0.229-3.988c-1.563,1.311-1.873,2.481-2.135,3.43
				c-0.266,0.948,0.037,1.812,0.692,1.963C158.361,52.973,159.118,52.358,159.38,51.413z"/>
			<path fill="#F9F9F9" d="M163.397,49.153c-1.005-0.283-2.219-0.599-3.516-2.179c1.865-0.82,3.076-0.504,4.085-0.222
				c1.008,0.275,1.714,1.069,1.556,1.731C165.365,49.146,164.406,49.433,163.397,49.153z"/>
		</g>
		<g>
			<path fill="#F9F9F9" d="M161.656,55.878c0.344-0.935,0.75-2.098,0.131-4.048c-1.654,1.217-2.061,2.381-2.404,3.315
				c-0.346,0.941-0.127,1.839,0.502,2.044C160.513,57.391,161.313,56.819,161.656,55.878z"/>
			<path fill="#F9F9F9" d="M165.809,53.881c-0.969-0.356-2.132-0.764-3.265-2.455c1.903-0.699,3.066-0.29,4.034,0.064
				c0.966,0.353,1.591,1.2,1.376,1.859C167.742,54.012,166.773,54.23,165.809,53.881z"/>
		</g>
		<g>
			<path fill="#F9F9F9" d="M163.73,60.444c0.458-0.935,0.921-2.061,0.286-3.984c-1.712,1.103-2.138,2.212-2.501,3.11
				c-0.326,0.881-0.27,1.835,0.353,2.071C162.467,61.89,163.308,61.369,163.73,60.444z"/>
			<path fill="#F9F9F9" d="M168.001,58.709c-0.888-0.437-2.037-0.908-3.204-2.606c1.96-0.582,3.147-0.125,4.132,0.272
				c1.019,0.376,1.483,1.305,1.237,1.947C169.894,58.975,168.923,59.132,168.001,58.709z"/>
		</g>
		<g>
			<path fill="#F9F9F9" d="M165.456,65.154c0.44-0.881,0.968-1.97,0.545-3.964c-1.786,0.996-2.313,2.088-2.754,2.969
				c-0.441,0.881-0.313,1.792,0.299,2.068C164.155,66.499,165.016,66.039,165.456,65.154z"/>
			<path fill="#F9F9F9" d="M169.827,63.695c-0.932-0.467-2.058-1.012-3.023-2.814c1.984-0.45,3.11,0.091,4.042,0.558
				c0.935,0.464,1.473,1.375,1.189,1.997C171.754,64.062,170.762,64.159,169.827,63.695z"/>
		</g>
		<g>
			<path fill="#F9F9F9" d="M166.861,69.966c0.515-0.854,1.159-1.923,0.908-3.954c-1.83,0.877-2.476,1.947-2.989,2.804
				c-0.521,0.861-0.484,1.782,0.094,2.101C165.449,71.233,166.344,70.827,166.861,69.966z"/>
			<path fill="#F9F9F9" d="M171.316,68.786c-0.885-0.531-1.92-1.16-2.73-3.03c2.027-0.333,3.066,0.296,3.951,0.828
				c0.877,0.527,1.324,1.479,0.985,2.088C173.186,69.28,172.193,69.313,171.316,68.786z"/>
		</g>
		<g>
			<path fill="#F9F9F9" d="M168.068,74.834c0.625-0.834,1.193-1.829,0.992-3.85c-1.891,0.76-2.529,1.772-3.057,2.586
				c-0.508,0.807-0.504,1.728,0.003,2.091C166.542,76.018,167.47,75.665,168.068,74.834z"/>
			<path fill="#F9F9F9" d="M172.588,73.937c-0.791-0.595-1.931-1.254-2.694-3.157c2.034-0.202,3.104,0.474,3.991,1.049
				c0.911,0.571,1.318,1.546,0.895,2.138C174.39,74.559,173.404,74.525,172.588,73.937z"/>
		</g>
		<g>
			<path fill="#F9F9F9" d="M168.821,79.797c0.608-0.783,1.338-1.755,1.318-3.799c-1.943,0.646-2.677,1.617-3.282,2.4
				c-0.605,0.787-0.662,1.702-0.117,2.092C167.285,80.873,168.216,80.58,168.821,79.797z"/>
			<path fill="#F9F9F9" d="M173.391,79.185c-0.82-0.635-1.815-1.382-2.407-3.335c2.034-0.074,3.029,0.672,3.85,1.312
				c0.824,0.632,1.17,1.627,0.77,2.189C175.206,79.911,174.211,79.817,173.391,79.185z"/>
		</g>
		<g>
			<path fill="#F9F9F9" d="M169.329,84.783c0.636-0.743,1.61-1.685,1.587-3.705c-1.963,0.514-2.68,1.432-3.393,2.182
				c-0.683,0.746-0.83,1.664-0.329,2.084C167.691,85.765,168.649,85.533,169.329,84.783z"/>
			<path fill="#F9F9F9" d="M173.929,84.457c-0.801-0.679-1.561-1.506-2.162-3.477c2.052,0.054,3.073,0.854,3.793,1.543
				c0.756,0.682,1.002,1.705,0.552,2.236C175.66,85.297,174.682,85.143,173.929,84.457z"/>
		</g>
		<g>
			<path fill="#F9F9F9" d="M169.585,89.796c0.682-0.7,1.509-1.573,1.694-3.598c-2.004,0.39-2.828,1.264-3.51,1.967
				c-0.684,0.703-0.827,1.607-0.326,2.058C167.944,90.674,168.905,90.502,169.585,89.796z"/>
			<path fill="#F9F9F9" d="M174.194,89.759c-0.753-0.733-1.668-1.597-2.058-3.608c2.031,0.182,2.945,1.049,3.698,1.779
				c0.757,0.73,0.999,1.762,0.545,2.267C175.926,90.701,174.947,90.489,174.194,89.759z"/>
		</g>
	</g>
</g>
</svg>
