<svg width="289" height="125" viewBox="0 0 289 125" version="1.1" xmlns="http://www.w3.org/2000/svg" xmlns:xlink="http://www.w3.org/1999/xlink" xmlns:figma="http://www.figma.com/figma/ns">
<title>Group</title>
<desc>Created using Figma</desc>
<g id="Canvas" transform="translate(-4822 -459)" figma:type="canvas">
<g id="Group" style="mix-blend-mode:normal;" figma:type="frame">
<mask id="mask0_alpha" mask-type="alpha">
<g id="Rectangle 2" style="mix-blend-mode:normal;" figma:type="rounded-rectangle">
<use xlink:href="#path0_fill" transform="translate(4767.5 459)" fill="url(#paint0_linear)" style="mix-blend-mode:normal;"/>
</g>
</mask>
<g id="Ellipse" style="mix-blend-mode:normal;" opacity="0.5" mask="url(#mask0_alpha)" figma:type="ellipse">
<mask id="mask1_outline_ins">
<use xlink:href="#path1_fill" fill="white" transform="translate(4822 295)"/>
</mask>
<g mask="url(#mask1_outline_ins)">
<use xlink:href="#path2_stroke_2x" transform="translate(4822 295)" fill="#FFFFFF" style="mix-blend-mode:normal;"/>
</g>
</g>
</g>
</g>
<defs>
<linearGradient id="paint0_linear" x1="0" y1="0" x2="1" y2="0" gradientUnits="userSpaceOnUse" gradientTransform="matrix(-2.52688e-13 136 -357.85 -1.26317e-12 389.425 6.08922e-13)">
<stop offset="0.23" stop-color="#C4C4C4" stop-opacity="0"/>
<stop offset="1" stop-color="#EBCA63"/>
</linearGradient>
<path id="path0_fill" d="M 0 0L 421 0L 421 160L 0 160L 0 0Z"/>
<path id="path1_fill" d="M 289 144.5C 289 224.305 224.305 289 144.5 289C 64.6949 289 0 224.305 0 144.5C 0 64.6949 64.6949 0 144.5 0C 224.305 0 289 64.6949 289 144.5Z"/>
<path id="path2_stroke_2x" d="M 254 144.5C 254 204.975 204.975 254 144.5 254L 144.5 324C 243.635 324 324 243.635 324 144.5L 254 144.5ZM 144.5 254C 84.0248 254 35 204.975 35 144.5L -35 144.5C -35 243.635 45.3649 324 144.5 324L 144.5 254ZM 35 144.5C 35 84.0248 84.0248 35 144.5 35L 144.5 -35C 45.3649 -35 -35 45.3649 -35 144.5L 35 144.5ZM 144.5 35C 204.975 35 254 84.0248 254 144.5L 324 144.5C 324 45.3649 243.635 -35 144.5 -35L 144.5 35Z"/>
</defs>
</svg>
