<svg width="294" height="125" viewBox="0 0 294 125" version="1.1" xmlns="http://www.w3.org/2000/svg" xmlns:xlink="http://www.w3.org/1999/xlink" xmlns:figma="http://www.figma.com/figma/ns">
<title>Group</title>
<desc>Created using Figma</desc>
<g id="Canvas" transform="translate(-3185 -459)" figma:type="canvas">
<g id="Group" style="mix-blend-mode:normal;" figma:type="frame">
<mask id="mask0_alpha" mask-type="alpha">
<g id="Rectangle 2" style="mix-blend-mode:normal;" figma:type="rounded-rectangle">
<use xlink:href="#path0_fill" transform="translate(3132.5 459)" fill="url(#paint0_linear)" style="mix-blend-mode:normal;"/>
</g>
</mask>
<g id="Rectangle 2" style="mix-blend-mode:normal;" opacity="0.3" mask="url(#mask0_alpha)" figma:type="rounded-rectangle">
<mask id="mask1_outline_ins">
<use xlink:href="#path1_fill" fill="white" transform="translate(3185.5 291)"/>
</mask>
<g mask="url(#mask1_outline_ins)">
<use xlink:href="#path2_stroke_2x" transform="translate(3185.5 291)" fill="#FFFFFF" style="mix-blend-mode:normal;"/>
</g>
</g>
</g>
</g>
<defs>
<linearGradient id="paint0_linear" x1="0" y1="0" x2="1" y2="0" gradientUnits="userSpaceOnUse" gradientTransform="matrix(-2.52688e-13 136 -357.85 -1.26317e-12 389.425 6.08922e-13)">
<stop offset="0.23" stop-color="#C4C4C4" stop-opacity="0"/>
<stop offset="1" stop-color="#EBCA63"/>
</linearGradient>
<path id="path0_fill" d="M 0 0L 421 0L 421 160L 0 160L 0 0Z"/>
<path id="path1_fill" d="M 0 0L 293 0L 293 293L 0 293L 0 0Z"/>
<path id="path2_stroke_2x" d="M 0 0L 0 -35L -35 -35L -35 0L 0 0ZM 293 0L 328 0L 328 -35L 293 -35L 293 0ZM 293 293L 293 328L 328 328L 328 293L 293 293ZM 0 293L -35 293L -35 328L 0 328L 0 293ZM 0 35L 293 35L 293 -35L 0 -35L 0 35ZM 258 0L 258 293L 328 293L 328 0L 258 0ZM 293 258L 0 258L 0 328L 293 328L 293 258ZM 35 293L 35 0L -35 0L -35 293L 35 293Z"/>
</defs>
</svg>
