<svg width="343" height="125" viewBox="0 0 343 125" version="1.1" xmlns="http://www.w3.org/2000/svg" xmlns:xlink="http://www.w3.org/1999/xlink" xmlns:figma="http://www.figma.com/figma/ns">
<title>Group</title>
<desc>Created using Figma</desc>
<g id="Canvas" transform="translate(-6323 -459)" figma:type="canvas">
<g id="Group" style="mix-blend-mode:normal;" figma:type="frame">
<mask id="mask0_alpha" mask-type="alpha">
<g id="Rectangle 2" style="mix-blend-mode:normal;" figma:type="rounded-rectangle">
<use xlink:href="#path0_fill" transform="translate(6284 459)" fill="url(#paint0_linear)" style="mix-blend-mode:normal;"/>
</g>
</mask>
<g id="Polygon" style="mix-blend-mode:normal;" opacity="0.5" mask="url(#mask0_alpha)" figma:type="regular-polygon">
<mask id="mask1_outline_ins">
<use xlink:href="#path1_fill" fill="white" transform="matrix(-1 0 0 1 6692 286.853)"/>
</mask>
<g mask="url(#mask1_outline_ins)">
<use xlink:href="#path2_stroke_2x" transform="matrix(-1 0 0 1 6692 286.853)" fill="#FFFFFF" style="mix-blend-mode:normal;"/>
</g>
</g>
</g>
</g>
<defs>
<linearGradient id="paint0_linear" x1="0" y1="0" x2="1" y2="0" gradientUnits="userSpaceOnUse" gradientTransform="matrix(-2.52688e-13 136 -357.85 -1.26317e-12 389.425 6.08922e-13)">
<stop offset="0.23" stop-color="#C4C4C4" stop-opacity="0"/>
<stop offset="1" stop-color="#EBCA63"/>
</linearGradient>
<path id="path0_fill" d="M 0 0L 421 0L 421 160L 0 160L 0 0Z"/>
<path id="path1_fill" d="M 197.5 0L 368.54 296.25L 26.46 296.25L 197.5 0Z"/>
<path id="path2_stroke_2x" d="M 197.5 0L 227.811 -17.5L 197.5 -70L 167.189 -17.5L 197.5 0ZM 368.54 296.25L 368.54 331.25L 429.162 331.25L 398.851 278.75L 368.54 296.25ZM 26.46 296.25L -3.85091 278.75L -34.1618 331.25L 26.46 331.25L 26.46 296.25ZM 167.189 17.5L 338.229 313.75L 398.851 278.75L 227.811 -17.5L 167.189 17.5ZM 368.54 261.25L 26.46 261.25L 26.46 331.25L 368.54 331.25L 368.54 261.25ZM 56.7709 313.75L 227.811 17.5L 167.189 -17.5L -3.85091 278.75L 56.7709 313.75Z"/>
</defs>
</svg>
